<?xml version="1.0" encoding="UTF-8"?>
<svg width="27px" height="27px" viewBox="0 0 27 27" version="1.1" xmlns="http://www.w3.org/2000/svg" xmlns:xlink="http://www.w3.org/1999/xlink">
    <title>Icons/Nav/Analytics/ Inactive</title>
    <g id="UI-Style-Guide" stroke="none" stroke-width="1" fill="none" fill-rule="evenodd">
        <g id="04.-Iconography-&amp;-Illustration" transform="translate(-479.000000, -372.000000)" fill="#A0A0A3" fill-rule="nonzero">
            <g id="Tab-Bar" transform="translate(118.000000, 294.000000)">
                <g id="browser" transform="translate(361.000000, 78.000000)">
                    <path d="M24.8886374,22.9802666 C25.8930348,22.9802666 26.7102,22.1631015 26.7102,21.1586519 L26.7102,2.60841797 C26.7102,1.1701363 25.5400637,0 24.101782,0 L2.60841797,0 C1.1701363,0 0,1.1701363 0,2.60841797 L0,21.1586519 C0,22.1631015 0.817165181,22.9802666 1.8215626,22.9802666 L2.39974453,22.9802666 L2.39974453,25.6668328 L0.521683594,25.6668328 C0.233557745,25.6668328 0,25.9004427 0,26.1885164 C0,26.4765901 0.233557745,26.7102 0.521683594,26.7102 L26.1885164,26.7102 C26.4766423,26.7102 26.7102,26.4765901 26.7102,26.1885164 C26.7102,25.9004427 26.4766423,25.6668328 26.1885164,25.6668328 L24.3104555,25.6668328 L24.3104555,22.9802666 L24.8886374,22.9802666 Z M1.04336719,2.60841797 C1.04336719,1.74544897 1.74544897,1.04336719 2.60841797,1.04336719 L24.101782,1.04336719 C24.964751,1.04336719 25.6668328,1.74544897 25.6668328,2.60841797 L25.6668328,3.75612188 L1.09574422,3.75612188 C1.07805915,3.75612188 1.06058275,3.75706091 1.04336719,3.75878246 L1.04336719,2.60841797 Z M5.73851953,25.6668328 L3.44311172,25.6668328 L3.44311172,20.9716805 L5.73851953,20.9716805 L5.73851953,25.6668328 Z M11.5813758,25.6668328 L9.28596797,25.6668328 L9.28596797,15.2035293 L11.5813758,15.2035293 L11.5813758,25.6668328 Z M17.424232,25.6668328 L15.1288242,25.6668328 L15.1288242,19.6153031 L17.424232,19.6153031 L17.424232,25.6668328 Z M23.7887719,13.3811842 L20.4499969,13.3811842 C20.161871,13.3811842 19.9283133,13.6147941 19.9283133,13.9028678 L19.9283133,16.5373178 C19.9283133,16.8253914 20.161871,17.0590013 20.4499969,17.0590013 C20.7381227,17.0590013 20.9716805,16.8253914 20.9716805,16.5373178 L20.9716805,14.4245514 L23.2670883,14.4245514 L23.2670883,25.6668328 L20.9716805,25.6668328 L20.9716805,20.0456921 C20.9716805,19.7576184 20.7381227,19.5240085 20.4499969,19.5240085 C20.161871,19.5240085 19.9283133,19.7576184 19.9283133,20.0456921 L19.9283133,25.6668328 L18.4675992,25.6668328 L18.4675992,19.0936195 C18.4675992,18.8055459 18.2340415,18.5719359 17.9459156,18.5719359 L14.6071406,18.5719359 C14.3190148,18.5719359 14.085457,18.8055459 14.085457,19.0936195 L14.085457,25.6668328 L12.624743,25.6668328 L12.624743,14.6818457 C12.624743,14.393772 12.3911852,14.1601621 12.1030594,14.1601621 L8.76428437,14.1601621 C8.47615853,14.1601621 8.24260078,14.393772 8.24260078,14.6818457 L8.24260078,25.6668328 L6.78188672,25.6668328 L6.78188672,20.4499969 C6.78188672,20.1619232 6.54832897,19.9283133 6.26020312,19.9283133 L2.92142812,19.9283133 C2.63330228,19.9283133 2.39974453,20.1619232 2.39974453,20.4499969 L2.39974453,21.9368995 L1.8215626,21.9368995 C1.39242568,21.9368995 1.04336719,21.5877888 1.04336719,21.1586519 L1.04336719,4.79682848 C1.06058275,4.79855003 1.07805915,4.79948906 1.09574422,4.79948906 L25.6668328,4.79948906 L25.6668328,21.1586519 C25.6668328,21.5877888 25.3177222,21.9368995 24.8886374,21.9368995 L24.3104555,21.9368995 L24.3104555,13.9028678 C24.3104555,13.6147941 24.0768977,13.3811842 23.7887719,13.3811842 Z" id="Shape"></path>
                    <path d="M23.3686114,1.881 L11.6179886,1.881 C11.3307437,1.881 11.0979,2.13369354 11.0979,2.4453 C11.0979,2.75690646 11.3307437,3.0096 11.6179886,3.0096 L23.3686114,3.0096 C23.6558563,3.0096 23.8887,2.75690646 23.8887,2.4453 C23.8887,2.13369354 23.6558563,1.881 23.3686114,1.881 Z" id="Path"></path>
                    <path d="M5.8538601,2.0463399 C5.7489003,1.9413801 5.6033109,1.881 5.4549,1.881 C5.3064891,1.881 5.1608997,1.94132367 5.0559399,2.0463399 C4.9509801,2.1512997 4.8906,2.2968891 4.8906,2.4453 C4.8906,2.5937109 4.9509801,2.7393003 5.0559399,2.84420367 C5.1608997,2.9492199 5.3064891,3.0096 5.4549,3.0096 C5.6033109,3.0096 5.7489003,2.9492199 5.8538601,2.84420367 C5.9588199,2.7393003 6.0192,2.5937109 6.0192,2.4453 C6.0192,2.2968891 5.9588199,2.1512997 5.8538601,2.0463399 Z" id="Path"></path>
                    <path d="M3.7847601,2.0463399 C3.6798003,1.9413801 3.5342109,1.881 3.3858,1.881 C3.2373891,1.881 3.0917997,1.94132367 2.9868399,2.0463399 C2.8818801,2.1512997 2.8215,2.2968891 2.8215,2.4453 C2.8215,2.5937109 2.8818801,2.7393003 2.9868399,2.84420367 C3.0917997,2.9492199 3.2373891,3.0096 3.3858,3.0096 C3.5342109,3.0096 3.6798003,2.9492199 3.7847601,2.84420367 C3.8897199,2.7393003 3.9501,2.5937109 3.9501,2.4453 C3.9501,2.2968891 3.8897199,2.1512997 3.7847601,2.0463399 Z" id="Path"></path>
                    <path d="M7.9229601,2.0463399 C7.8180003,1.9413801 7.6729752,1.881 7.524,1.881 C7.3755891,1.881 7.2299997,1.94132367 7.1250399,2.0463399 C7.0200801,2.1512997 6.9597,2.2968891 6.9597,2.4453 C6.9597,2.5937109 7.0200801,2.7393003 7.1250399,2.84420367 C7.2299997,2.9492199 7.3755891,3.0096 7.524,3.0096 C7.6724109,3.0096 7.8180003,2.9492199 7.9229601,2.84420367 C8.0279199,2.7393003 8.0883,2.5937109 8.0883,2.4453 C8.0883,2.2968891 8.0279199,2.1512997 7.9229601,2.0463399 Z" id="Path"></path>
                    <path d="M20.9018601,18.0348399 C20.7969003,17.9293158 20.6513109,17.8695 20.5029,17.8695 C20.3544891,17.8695 20.2088997,17.9293722 20.1039399,18.0348399 C19.9989801,18.1397997 19.9386,18.2853891 19.9386,18.4338 C19.9386,18.5822109 19.9989801,18.7278003 20.1039399,18.8327601 C20.2088997,18.9376635 20.3544891,18.9981 20.5029,18.9981 C20.6513109,18.9981 20.7969003,18.9377199 20.9018601,18.8327601 C21.0068199,18.7278003 21.0672,18.5822109 21.0672,18.4338 C21.0672,18.2848248 21.0068199,18.1397997 20.9018601,18.0348399 Z" id="Path"></path>
                    <path d="M22.0162796,7.1478 C20.9837958,7.1478 20.1438593,7.99044582 20.1438593,9.02625994 C20.1438593,9.43769485 20.2767491,9.81839607 20.5012315,10.1281854 L17.0463558,13.5942049 C16.7782356,13.445337 16.4702225,13.3602845 16.1426529,13.3602845 C15.8474867,13.3602845 15.568184,13.4294222 15.3196202,13.5519917 L11.7121423,9.93287776 C11.8605316,9.66389274 11.9453106,9.35488608 11.9453106,9.02625994 C11.9453106,7.99044582 11.105374,7.1478 10.0728902,7.1478 C9.04040643,7.1478 8.20046986,7.99044582 8.20046986,9.02625994 C8.20046986,9.38828092 8.30334895,9.72650807 8.48091682,10.0135994 L5.40947125,13.0948998 C5.14135106,12.9460319 4.83333791,12.8609794 4.50582037,12.8609794 C3.47333657,12.8609794 2.6334,13.7036252 2.6334,14.7394393 C2.6334,15.7752534 3.47333657,16.6178993 4.50582037,16.6178993 C5.53830418,16.6178993 6.37824075,15.7752534 6.37824075,14.7394393 C6.37824075,14.4108132 6.29346172,14.1018065 6.1450724,13.8328215 L9.2531862,10.7146824 C9.50091782,10.8362083 9.77907627,10.9046677 10.0728902,10.9046677 C10.4004078,10.9046677 10.7084209,10.8196152 10.9765411,10.6707473 L14.5487031,14.2543792 C14.3723315,14.5408444 14.2702326,14.8779236 14.2702326,15.2386401 C14.2702326,16.2744542 15.1101691,17.1171 16.1426529,17.1171 C17.1751367,17.1171 18.0150733,16.2744542 18.0150733,15.2386401 C18.0150733,14.9100139 17.9302943,14.6010073 17.781905,14.3320222 L21.3293614,10.7731233 C21.5422452,10.8577584 21.7738532,10.9047199 22.0162796,10.9047199 C23.0487634,10.9047199 23.8887,10.0620741 23.8887,9.02625994 C23.8887,7.99044582 23.0487634,7.1478 22.0162796,7.1478 Z M4.50587239,15.5744148 C4.04702537,15.5744148 3.67368555,15.1998707 3.67368555,14.7395437 C3.67368555,14.2792166 4.04702537,13.9046726 4.50587239,13.9046726 C4.9647194,13.9046726 5.33805922,14.2792166 5.33805922,14.7395437 C5.33805922,15.1998707 4.9647194,15.5744148 4.50587239,15.5744148 Z M10.0729422,9.86113103 C9.61409523,9.86113103 9.24075541,9.48658699 9.24075541,9.02625994 C9.24075541,8.5659329 9.61409523,8.19138886 10.0729422,8.19138886 C10.5317893,8.19138886 10.9051291,8.5659329 10.9051291,9.02625994 C10.9051291,9.48658699 10.5317893,9.86113103 10.0729422,9.86113103 Z M16.142705,16.0736155 C15.6838579,16.0736155 15.3105181,15.6990715 15.3105181,15.2387444 C15.3105181,14.7784174 15.6838579,14.4038733 16.142705,14.4038733 C16.601552,14.4038733 16.9748918,14.7784174 16.9748918,15.2387444 C16.9748918,15.6990715 16.601552,16.0736155 16.142705,16.0736155 Z M22.0162796,9.86113103 C21.5574326,9.86113103 21.1840928,9.48658699 21.1840928,9.02625994 C21.1840928,8.5659329 21.5574326,8.19138886 22.0162796,8.19138886 C22.4751266,8.19138886 22.8484665,8.5659329 22.8484665,9.02625994 C22.8484665,9.48658699 22.4751266,9.86113103 22.0162796,9.86113103 Z" id="Shape"></path>
                    <path d="M7.7348601,6.74889633 C7.629336,6.64393653 7.4843109,6.5835 7.3359,6.5835 C7.1869248,6.5835 7.0413354,6.6438801 6.9363756,6.74889633 C6.8314158,6.8537997 6.7716,6.9993891 6.7716,7.1478 C6.7716,7.2962109 6.8314158,7.4418003 6.9363756,7.5467601 C7.0418997,7.6517199 7.1869248,7.7121 7.3359,7.7121 C7.4843109,7.7121 7.629336,7.65177633 7.7348601,7.5467601 C7.8398199,7.4418003 7.9002,7.2962109 7.9002,7.1478 C7.9002,6.9993891 7.8398199,6.8537997 7.7348601,6.74889633 Z" id="Path"></path>
                    <path d="M5.49362647,6.5835 L2.97087353,6.5835 C2.68059927,6.5835 2.4453,6.83619354 2.4453,7.1478 C2.4453,7.45940646 2.68059927,7.7121 2.97087353,7.7121 L5.49362647,7.7121 C5.78390073,7.7121 6.0192,7.45940646 6.0192,7.1478 C6.0192,6.83619354 5.78390073,6.5835 5.49362647,6.5835 Z" id="Path"></path>
                    <path d="M5.49362647,9.0288 L2.97087353,9.0288 C2.68059927,9.0288 2.4453,9.28149354 2.4453,9.5931 C2.4453,9.90470646 2.68059927,10.1574 2.97087353,10.1574 L5.49362647,10.1574 C5.78390073,10.1574 6.0192,9.90470646 6.0192,9.5931 C6.0192,9.28149354 5.78390073,9.0288 5.49362647,9.0288 Z" id="Path"></path>
                </g>
            </g>
        </g>
    </g>
</svg>