<?xml version="1.0" encoding="UTF-8"?>
<svg width="28px" height="18px" viewBox="0 0 28 18" version="1.1" xmlns="http://www.w3.org/2000/svg" xmlns:xlink="http://www.w3.org/1999/xlink">
    <title>Icons/Nav/Map - Active</title>
    <g id="UI-Style-Guide" stroke="none" stroke-width="1" fill="none" fill-rule="evenodd">
        <g id="04.-Iconography-&amp;-Illustration" transform="translate(-190.000000, -376.000000)" fill="#A0A0A3" fill-rule="nonzero" stroke="#A0A0A3" stroke-width="0.9">
            <g id="Tab-Bar" transform="translate(118.000000, 294.000000)">
                <g id="Combined-Shape" transform="translate(72.000000, 77.000000)">
                    <path d="M20.5589209,6 C22.6234045,6 24.3030063,7.80415761 24.3030063,10.0217391 C24.3030063,11.3953261 23.6584417,12.6100815 22.6773396,13.3359239 C23.5933756,13.675462 24.4329615,14.2363587 25.1383421,14.9940217 C26.2096424,16.1448151 26.845114,17.7005596 26.9899567,19.2994567 C26.9928699,19.3316152 26.9958458,19.3661925 26.9988844,19.4031887 C26.9999722,19.4160179 27.0004998,19.4288877 27.0004998,19.4417629 C27.0004998,19.702044 26.7895003,19.9130435 26.5292192,19.9130435 C26.2516617,19.9130435 26.0216626,19.6977968 26.0033194,19.4208461 C26.00031,19.3754825 25.997078,19.3350194 25.9936233,19.2994567 C25.7071292,16.3502348 23.3790978,14.0434783 20.5589209,14.0434783 C19.1485558,14.0434783 18.2381896,13.7279004 17.6687545,13.7241113 L17.595,13.725 L17.8417965,13.5948066 C17.9394861,13.5462838 18.0382779,13.5004264 18.1380928,13.457268 L18.4405275,13.3359239 C18.1831937,13.1455473 17.949013,12.9215369 17.7435427,12.6698487 C17.6969654,13.0457358 17.5985376,13.4060762 17.4581908,13.7421971 C17.5000731,13.7328691 17.5453199,13.7278837 17.5932025,13.7255862 L17.595,13.725 L17.5521139,13.7483374 C17.5072766,13.7736308 17.4627002,13.7995054 17.418393,13.8259578 C17.2734479,14.1602204 17.085383,14.4661498 16.8633971,14.7398293 C16.8292112,15.0239083 16.8148355,15.3857991 16.8148355,15.8396596 L16.8164503,15.714677 C17.4782441,16.0515558 18.0883596,16.5104889 18.6220236,17.0809783 C19.6730014,18.2045651 20.3202232,19.6447724 20.4856943,21.2003976 C20.4938697,21.2772565 20.5011632,21.3714979 20.5075746,21.4831216 C20.5081349,21.4924547 20.5084031,21.5018027 20.5084031,21.5111525 C20.5084031,21.7811355 20.2895387,22 20.0195557,22 C19.7387861,22 19.5111773,21.7723913 19.5111773,21.4916217 L19.5111773,21.4916217 L19.5111773,21.2003976 C19.5111773,18.2008959 16.8798525,16.1304348 14.0206913,16.1304348 C11.0759394,16.1304348 8.65973985,18.0858781 8.53020524,21.2003976 C8.52966337,21.2134263 8.52924254,21.2368447 8.52894276,21.270653 L8.52841162,21.4931682 L8.52841162,21.4931682 L8.52025001,21.5844744 C8.47735649,21.8207954 8.27051943,22 8.0218269,22 C7.73984348,22 7.51117504,21.7715506 7.51087835,21.4895673 C7.51073296,21.3378498 7.5115897,21.2414599 7.51344856,21.2003976 C7.59171358,19.4715215 8.26651498,18.3134706 9.41938437,17.0809783 C9.95115408,16.512514 10.5588334,16.0548153 11.2179122,15.7182691 C11.203443,15.2486751 11.164246,14.894188 11.0935688,14.6284933 C10.9509746,14.4431944 10.8249562,14.242199 10.7163669,14.0296348 C10.2010511,13.6970061 9.22212773,14.0434783 7.48246169,14.0434783 C4.6349254,14.0434783 2.26725177,16.2198304 2.01812082,19.2100917 C2.01408138,19.2585761 2.01173213,19.3277969 2.01107305,19.4177539 C2.00908636,19.6918799 1.78629647,19.9130435 1.51216333,19.9130435 L1.51216333,19.9130435 C1.2238361,19.9100014 0.996965952,19.678246 0.999960682,19.3953743 C1.00078774,19.317729 1.00286946,19.2559681 1.00620584,19.2100917 C1.12618417,17.5603484 1.80199465,16.1767705 2.90306576,14.9940217 C3.60844639,14.2363587 4.44803225,13.675462 5.36406828,13.3359239 C4.38294082,12.6100815 3.73837628,11.3953261 3.73837628,10.0217391 C3.73837628,7.80415761 5.41797805,6 7.48246169,6 C9.37041144,6 10.9364875,7.50880267 11.1905131,9.46280163 C11.8794825,8.62021312 12.8929348,8.08695652 14.0206913,8.08695652 C15.1488918,8.08695652 16.162698,8.62063309 16.8528172,9.46424322 C17.1043625,7.50931573 18.6706502,6 20.5589209,6 Z M14.0206913,9.17391304 C12.5069694,9.17391304 11.2754483,10.4904348 11.2754483,12.1086957 C11.2754483,13.4605332 12.1348452,14.601807 13.3002371,14.9409542 C13.3192034,14.9220708 13.3330256,14.9226018 13.3431694,14.9508438 C13.5593941,15.012012 13.7866702,15.0434783 14.0206913,15.0434783 C15.5344132,15.0434783 16.7659343,13.7269565 16.7659343,12.1086957 C16.7659343,10.4904348 15.5344132,9.17391304 14.0206913,9.17391304 Z M10.2950609,12.668804 L10.233515,12.7466609 C10.0439437,12.9672832 9.83172796,13.1651375 9.6008804,13.3359239 C9.95386828,13.4667624 10.2955041,13.6304703 10.6224833,13.8256404 C10.4601824,13.4680866 10.3486727,13.0782332 10.2950609,12.668804 Z M20.5589209,7.08695652 C19.0524072,7.08695652 17.8267504,8.40347826 17.8267504,10.0217391 C17.8267504,11.64 19.0524072,12.9565217 20.5589209,12.9565217 C22.0654346,12.9565217 23.2910913,11.64 23.2910913,10.0217391 C23.2910913,8.40347826 22.0654346,7.08695652 20.5589209,7.08695652 Z M7.48246169,7.08695652 C5.97594797,7.08695652 4.75029125,8.40347826 4.75029125,10.0217391 C4.75029125,11.64 5.97594797,12.9565217 7.48246169,12.9565217 C8.98897541,12.9565217 10.2146321,11.64 10.2146321,10.0217391 C10.2146321,8.40347826 8.98897541,7.08695652 7.48246169,7.08695652 Z"></path>
                </g>
            </g>
        </g>
    </g>
</svg>