<?xml version="1.0" encoding="UTF-8"?>
<svg width="28px" height="28px" viewBox="0 0 28 28" version="1.1" xmlns="http://www.w3.org/2000/svg" xmlns:xlink="http://www.w3.org/1999/xlink">
    <title>Icons/Nav/Mis clientes/ Inactive</title>
    <g id="UI-Style-Guide" stroke="none" stroke-width="1" fill="none" fill-rule="evenodd">
        <g id="04.-Iconography-&amp;-Illustration" transform="translate(-334.000000, -371.000000)" fill="#A0A0A3" fill-rule="nonzero" stroke="#979797" stroke-width="0.88944">
            <g id="Tab-Bar" transform="translate(118.000000, 294.000000)">
                <g id="noun_profile_2560650" transform="translate(217.000000, 78.000000)">
                    <path d="M15.6371346,12.4988517 C15.9726177,11.997032 16.1690186,11.3946235 16.1690186,10.7472592 C16.1690186,9.00437685 14.7509423,7.58630059 13.00806,7.58630059 C11.2651777,7.58630059 9.84710142,9.00437685 9.84710142,10.7472592 C9.84710142,11.3949045 10.0435023,11.997032 10.3789854,12.4988517 C8.80412558,13.4108936 7.7397957,15.1102249 7.7397957,17.0573754 C7.7397957,18.0337536 8.53130657,18.8252644 9.50768471,18.8252644 L16.5084353,18.8252644 C17.4848134,18.8252644 18.2763243,18.0337536 18.2763243,17.0573754 L18.2763243,17.0573754 L18.2763243,17.0573754 C18.2763243,15.1105059 17.2119944,13.4108936 15.6371346,12.4988517 Z M13.00806,8.28873583 C14.36376,8.28873583 15.4665833,9.39155916 15.4665833,10.7472592 C15.4665833,11.2833577 15.2920984,11.7784341 14.9998854,12.1827558 C14.8481594,12.3926435 14.6641213,12.5772435 14.4550766,12.7303743 C14.0485071,13.0279259 13.5492161,13.2057825 13.00806,13.2057825 C12.4669039,13.2057825 11.9676129,13.0279259 11.5610434,12.7303743 C11.3519987,12.5775244 11.1682416,12.3929245 11.0162346,12.1827558 C10.7237406,11.7784341 10.5495367,11.2833577 10.5495367,10.7472592 C10.5495367,9.39155916 11.65236,8.28873583 13.00806,8.28873583 Z M16.5084353,18.1228292 L9.50768471,18.1228292 C8.91925084,18.1228292 8.44223094,17.6458093 8.44223094,17.0573754 L8.44223094,17.0573754 L8.44223094,17.0573754 C8.44223094,15.3243272 9.41299644,13.8138105 10.839221,13.0405697 C11.4059457,13.5769493 12.1682284,13.9082178 13.00806,13.9082178 C13.8478916,13.9082178 14.6101743,13.5769493 15.176899,13.0405697 C16.6031236,13.8138105 17.5738891,15.3243272 17.5738891,17.0573754 C17.5738891,17.6458093 17.0968692,18.1228292 16.5084353,18.1228292 Z" id="Shape"></path>
                    <path d="M24.4673075,11.465148 C23.7109253,6.46521395 19.7486286,2.50291725 14.7486945,1.74653498 C14.6399575,0.881977687 13.9015576,0.210730572 13.00806,0.210730572 C12.1145624,0.210730572 11.3761625,0.881977687 11.2674255,1.74653498 C6.26749144,2.50291725 2.30519474,6.46521395 1.54881247,11.465148 C0.684255175,11.573885 0.01300806,12.3122849 0.01300806,13.2057825 C0.01300806,14.0992801 0.684255175,14.8376801 1.54881247,14.946417 C2.30519474,19.9463511 6.26749144,23.9086478 11.2674255,24.66503 C11.3761625,25.5295873 12.1145624,26.2008345 13.00806,26.2008345 C13.9015576,26.2008345 14.6399575,25.5295873 14.7486945,24.66503 C19.7486286,23.9086478 23.7109253,19.9463511 24.4673075,14.946417 C25.3318648,14.8376801 26.0031119,14.0992801 26.0031119,13.2057825 C26.0031119,12.3122849 25.3318648,11.573885 24.4673075,11.465148 Z M24.5521617,14.209141 C24.4549447,14.2386433 24.353794,14.2594354 24.2470238,14.2594354 C24.1065368,14.2594354 23.9727931,14.230495 23.8500074,14.1804817 C23.4656349,14.0231362 23.193371,13.6460689 23.193371,13.2057825 C23.193371,12.7654961 23.4656349,12.3884289 23.8500074,12.2310834 C23.9727931,12.18107 24.1065368,12.1521297 24.2470238,12.1521297 C24.353794,12.1521297 24.4549447,12.1729217 24.5521617,12.202424 C24.9837379,12.3342009 25.3006767,12.7314982 25.3006767,13.2057825 C25.3006767,13.6800668 24.9837379,14.0773642 24.5521617,14.209141 Z M13.00806,0.913165812 C13.4820633,0.913165812 13.8796416,1.23010459 14.0114185,1.6616808 C14.0409208,1.75889784 14.0617129,1.86004852 14.0617129,1.96681867 C14.0617129,2.10730572 14.0327725,2.24104939 13.9827591,2.36383507 C13.8254136,2.74820763 13.4483464,3.02047153 13.00806,3.02047153 C12.5677736,3.02047153 12.1907064,2.74820763 12.0333609,2.36383507 C11.9833475,2.24104939 11.9544071,2.10730572 11.9544071,1.96681867 C11.9544071,1.86004852 11.9751992,1.75889784 12.0047015,1.6616808 C12.1364784,1.23010459 12.5340567,0.913165812 13.00806,0.913165812 Z M0.7154433,13.2057825 C0.7154433,12.7317792 1.03238208,12.3342009 1.46395829,12.202424 C1.56117533,12.1729217 1.662326,12.1521297 1.76909616,12.1521297 C1.90958321,12.1521297 2.04332688,12.18107 2.16611256,12.2310834 C2.55048512,12.3884289 2.82274902,12.7654961 2.82274902,13.2057825 C2.82274902,13.6460689 2.55048512,14.0231362 2.16611256,14.1804817 C2.04332688,14.230495 1.90958321,14.2594354 1.76909616,14.2594354 C1.662326,14.2594354 1.56117533,14.2386433 1.46395829,14.209141 C1.03238208,14.0773642 0.7154433,13.6797858 0.7154433,13.2057825 Z M13.00806,25.4983992 C12.5340567,25.4983992 12.1364784,25.1814604 12.0047015,24.7496032 C11.9751992,24.6526672 11.9544071,24.5515165 11.9544071,24.4447464 C11.9544071,24.3042593 11.9833475,24.1705156 12.0333609,24.04773 C12.1907064,23.6633574 12.5677736,23.3910935 13.00806,23.3910935 C13.4483464,23.3910935 13.8254136,23.6633574 13.9827591,24.04773 C14.0327725,24.1705156 14.0617129,24.3042593 14.0617129,24.4447464 C14.0617129,24.5515165 14.0409208,24.6526672 14.0114185,24.7496032 C13.8796416,25.1814604 13.4820633,25.4983992 13.00806,25.4983992 Z M14.6950285,23.9623138 C14.4848598,23.2281285 13.8088362,22.6886583 13.00806,22.6886583 C12.2072838,22.6886583 11.5312602,23.2281285 11.3210915,23.9623138 C6.66591271,23.2348719 2.97897062,19.5482108 2.25180966,14.893032 C2.985714,14.6825824 3.52518426,14.0065587 3.52518426,13.2057825 C3.52518426,12.4050063 2.985714,11.7289827 2.25152868,11.518814 C2.97897062,6.86363522 6.66563173,3.17669313 11.3208106,2.44953217 C11.5312602,3.18343651 12.2072838,3.72290677 13.00806,3.72290677 C13.8088362,3.72290677 14.4848598,3.18343651 14.6950285,2.44925119 C19.3502073,3.17669313 23.0371494,6.86335424 23.7643103,11.5185331 C23.030406,11.7289827 22.4909357,12.4050063 22.4909357,13.2057825 C22.4909357,14.0065587 23.030406,14.6825824 23.7645913,14.892751 C23.0371494,19.5482108 19.3504883,23.2348719 14.6950285,23.9623138 Z" id="Shape"></path>
                </g>
            </g>
        </g>
    </g>
</svg>