<?xml version="1.0" encoding="UTF-8"?>
<svg width="23px" height="30px" viewBox="0 0 23 30" version="1.1" xmlns="http://www.w3.org/2000/svg" xmlns:xlink="http://www.w3.org/1999/xlink">
    <title>Icons/Nav/Mis facturas/ Inactive</title>
    <g id="UI-Style-Guide" stroke="none" stroke-width="1" fill="none" fill-rule="evenodd">
        <g id="04.-Iconography-&amp;-Illustration" transform="translate(-265.000000, -370.000000)" fill="#A0A0A3" fill-rule="nonzero" stroke="#A0A0A3" stroke-width="0.7">
            <g id="Tab-Bar" transform="translate(118.000000, 294.000000)">
                <g id="Group" transform="translate(146.000000, 76.000000)">
                    <g id="bill" transform="translate(2.000000, 1.000000)">
                        <path d="M13.4506885,0 L4.55729167,0 C2.04036898,4.62351197e-16 5.79944288e-16,2.04036898 0,4.55729167 L0,23.4427083 C-5.79944288e-16,25.959631 2.04036898,28 4.55729167,28 L16.4427083,28 C18.959631,28 21,25.959631 21,23.4427083 L21,7.54927047 C21,6.8240651 20.7119117,6.12856258 20.1991119,5.61576713 L15.3841754,0.800871656 C14.8713812,0.288081911 14.1758858,1.64314026e-15 13.4506885,0 Z M15.6334354,2.4583417 L18.5416583,5.36656455 C18.6484423,5.47334854 18.6484423,5.64647959 18.5416583,5.75326357 C18.4903788,5.80454305 18.4208289,5.83335156 18.3483088,5.83335156 L16.3332969,5.83335156 L16.3332969,5.83335156 C15.6895703,5.83335156 15.1666484,5.30982813 15.1666484,4.66670313 L15.1666484,2.65169121 C15.1666484,2.50067585 15.2890706,2.37825371 15.4400859,2.37825371 C15.5126061,2.37825371 15.582156,2.40706222 15.6334354,2.4583417 Z M16.1875182,26.8332969 L4.81253646,26.8332969 C2.79899831,26.8332969 1.16670312,25.2010017 1.16670312,23.1874635 L1.16670312,4.81253646 C1.16670312,2.79899831 2.79899831,1.16670313 4.81253646,1.16670313 L14,1.16670313 L14,1.16670313 L14,4.66670313 C14,5.95355469 15.0470469,7 16.3333516,7 L19.8333516,7 L19.8333516,23.1874635 C19.8333516,25.2010017 18.2010564,26.8332969 16.1875182,26.8332969 Z" id="Shape"></path>
                        <path d="M16.4582677,17 L4.54168148,17 C4.2422764,17 4,17.28626 4,17.64002 C4,17.99378 4.2422764,18.28004 4.54168148,18.28004 L16.4583185,18.28004 C16.7577236,18.28004 17,17.99378 17,17.64002 C17,17.28626 16.7576728,17 16.4582677,17 Z" id="Path"></path>
                        <path d="M16.4582677,14 L4.54168148,14 C4.2422764,14 4,14.28626 4,14.64002 C4,14.99378 4.2422764,15.28004 4.54168148,15.28004 L16.4583185,15.28004 C16.7577236,15.28004 17,14.99378 17,14.64002 C17,14.28626 16.7576728,14 16.4582677,14 Z" id="Path"></path>
                        <path d="M10.4999866,20 L4.50001339,20 C4.22363963,20 4,20.28626 4,20.64002 C4,20.99378 4.22363963,21.28004 4.50001339,21.28004 L10.4999866,21.28004 C10.7763604,21.28004 11,20.99378 11,20.64002 C11,20.28626 10.7763604,20 10.4999866,20 Z" id="Path"></path>
                        <path d="M10,10.64002 C10,10.99378 10.2236396,11.28004 10.5000134,11.28004 L16.4999866,11.28004 C16.7763604,11.28004 17,10.99378 17,10.64002 C17,10.28626 16.7763604,10 16.4999866,10 L10.5000134,10 C10.2236396,10.00006 10,10.28632 10,10.64002 Z" id="Path"></path>
                        <path d="M5.92,11.2499863 L4.64002,11.2499863 C4.28626,11.2499863 4,11.5108943 4,11.8333242 C4,12.1557542 4.28626,12.4166621 4.64002,12.4166621 L5.28004,12.4166621 C5.28004,12.7390921 5.5663,13 5.92006,13 C6.27382,13 6.56008,12.7390921 6.56008,12.4166621 L6.56008,12.3092037 C7.30336,12.0675453 7.84,11.4261306 7.84,10.6666484 C7.84,9.70165543 6.97876,8.91668945 5.92,8.91668945 C5.5675,8.91668945 5.27998,8.65523464 5.27998,8.33335156 C5.27998,8.01152317 5.5675,7.75001367 5.92,7.75001367 L7.19998,7.75001367 C7.55374,7.75001367 7.84,7.48910572 7.84,7.16667578 C7.84,6.84424584 7.55374,6.58333789 7.19998,6.58333789 L6.55996,6.58333789 C6.55996,6.26090795 6.2737,6 5.91994,6 C5.56618,6 5.27992,6.26090795 5.27992,6.58333789 L5.27992,6.69079631 C4.53664,6.93245471 4,7.57386936 4,8.33335156 C4,9.29834457 4.86124,10.0833105 5.92,10.0833105 C6.2725,10.0833105 6.56002,10.3447654 6.56002,10.6666484 C6.56002,10.9885315 6.2725,11.2499863 5.92,11.2499863 Z" id="Path"></path>
                    </g>
                </g>
            </g>
        </g>
    </g>
</svg>