<?xml version="1.0" encoding="UTF-8"?>
<svg width="180px" height="40px" viewBox="0 0 180 40" version="1.1" xmlns="http://www.w3.org/2000/svg" xmlns:xlink="http://www.w3.org/1999/xlink">
    <title>Button/S/Left Icon/Disabled</title>
    <g id="UI-Style-Guide" stroke="none" stroke-width="1" fill="none" fill-rule="evenodd">
        <g id="03.-Components" transform="translate(-941.000000, -693.000000)">
            <g id="Button" transform="translate(120.000000, 294.000000)">
                <g id="S-Buttons" transform="translate(593.000000, 79.000000)">
                    <g id="Button/S/Left-Icon/Disabled" transform="translate(228.000000, 320.000000)">
                        <rect id="Frame" fill="#E5E5E5" fill-rule="nonzero" x="0" y="0" width="180" height="40" rx="20"></rect>
                        <g id="Group" transform="translate(49.000000, 11.000000)">
                            <text id="Text" font-family="Barlow-Medium, Barlow" font-size="14" font-weight="400" line-spacing="18" fill="#B8B6B6">
                                <tspan x="20" y="14">DISABLED</tspan>
                            </text>
                            <g transform="translate(0.000000, 3.000000)" fill="#B4B4B4" fill-rule="nonzero" id="Icons/Icon">
                                <g>
                                    <path d="M7,0 C10.8659932,0 14,3.13400675 14,7 C14,10.8659932 10.8659932,14 7,14 C3.13400675,14 0,10.8659932 0,7 C0,3.13400675 3.13400675,0 7,0 Z M7,1.55555556 C3.99311636,1.55555556 1.55555556,3.99311636 1.55555556,7 C1.55555556,10.0068836 3.99311636,12.4444444 7,12.4444444 C10.0068836,12.4444444 12.4444444,10.0068836 12.4444444,7 C12.4444444,3.99311636 10.0068836,1.55555556 7,1.55555556 Z M6.86393644,4.69969992 L8.68211826,6.51788174 C8.94838482,6.7841483 8.94838482,7.2158517 8.68211826,7.48211826 L6.86393644,9.30030008 C6.59766988,9.56656664 6.16596648,9.56656664 5.89969992,9.30030008 C5.63343336,9.03403352 5.63343336,8.60233012 5.89969992,8.33606356 L7.23576348,7 L5.89969992,5.66393644 C5.63343336,5.39766988 5.63343336,4.96596648 5.89969992,4.69969992 C6.16596648,4.43343336 6.59766988,4.43343336 6.86393644,4.69969992 Z" id="Combined-Shape"></path>
                                </g>
                            </g>
                        </g>
                    </g>
                </g>
            </g>
        </g>
    </g>
</svg>