<?xml version="1.0" encoding="UTF-8"?>
<svg width="139px" height="102px" viewBox="0 0 139 102" version="1.1" xmlns="http://www.w3.org/2000/svg" xmlns:xlink="http://www.w3.org/1999/xlink">
    <title>clock</title>
    <g id="UI-Style-Guide" stroke="none" stroke-width="1" fill="none" fill-rule="evenodd">
        <g id="04.-Iconography-&amp;-Illustration" transform="translate(-850.000000, -1301.000000)" fill-rule="nonzero">
            <g id="clock" transform="translate(850.000000, 1301.000000)">
                <g id="Group" transform="translate(0.000000, 2.160000)" fill="#A0C77C">
                    <path d="M72.57222,4.27464 L30.46518,4.27464 C29.3301,4.27464 28.41021,3.35475 28.41021,2.21967 C28.41021,1.08459 29.33037,0.1647 30.46518,0.1647 L72.57222,0.1647 C73.7073,0.1647 74.62746,1.08459 74.62746,2.21967 C74.62746,3.35475 73.70757,4.27464 72.57222,4.27464 Z" id="Path"></path>
                    <path d="M32.32521,19.33821 L10.65123,19.33821 C9.51615,19.33821 8.59626,18.41832 8.59626,17.28324 C8.59626,16.14816 9.51642,15.22827 10.65123,15.22827 L32.32521,15.22827 C33.46029,15.22827 34.38018,16.14816 34.38018,17.28324 C34.38018,18.41832 33.46029,19.33821 32.32521,19.33821 Z" id="Path"></path>
                    <path d="M31.58217,33.34203 L23.02047,33.34203 C21.88539,33.34203 20.9655,32.42214 20.9655,31.28706 C20.9655,30.15198 21.88566,29.23209 23.02047,29.23209 L31.58244,29.23209 C32.71752,29.23209 33.63741,30.15198 33.63741,31.28706 C33.63741,32.42214 32.71725,33.34203 31.58217,33.34203 Z" id="Path"></path>
                    <path d="M23.02047,43.4835 L2.05497,43.4835 C0.91989,43.4835 -2.63788991e-15,42.56361 -2.63788991e-15,41.42853 C-2.63788991e-15,40.29345 0.92016,39.37356 2.05497,39.37356 L23.0202,39.37356 C24.15528,39.37356 25.07517,40.29345 25.07517,41.42853 C25.07517,42.56361 24.15528,43.4835 23.02047,43.4835 Z" id="Path"></path>
                    <path d="M75.31245,97.03557 L30.46518,97.03557 C29.3301,97.03557 28.41021,96.11568 28.41021,94.98033 C28.41021,93.84498 29.33037,92.92536 30.46518,92.92536 L75.31245,92.92536 C76.44753,92.92536 77.36742,93.84525 77.36742,94.98033 C77.36742,96.11541 76.44753,97.03557 75.31245,97.03557 Z" id="Path"></path>
                    <path d="M32.32521,81.972 L10.65123,81.972 C9.51615,81.972 8.59626,81.05211 8.59626,79.91703 C8.59626,78.78195 9.51642,77.86179 10.65123,77.86179 L32.32521,77.86179 C33.46029,77.86179 34.38018,78.78168 34.38018,79.91703 C34.38018,81.05238 33.46029,81.972 32.32521,81.972 Z" id="Path"></path>
                    <path d="M31.58217,67.96818 L23.02047,67.96818 C21.88539,67.96818 20.9655,67.04829 20.9655,65.91294 C20.9655,64.77759 21.88566,63.85797 23.02047,63.85797 L31.58244,63.85797 C32.71752,63.85797 33.63741,64.77786 33.63741,65.91294 C33.63741,67.04802 32.71725,67.96818 31.58217,67.96818 Z" id="Path"></path>
                    <path d="M23.02047,57.82698 L2.05497,57.82698 C0.91989,57.82698 -2.63788991e-15,56.90709 -2.63788991e-15,55.77201 C-2.63788991e-15,54.63693 0.92016,53.71677 2.05497,53.71677 L23.0202,53.71677 C24.15528,53.71677 25.07517,54.63666 25.07517,55.77201 C25.07517,56.90736 24.15528,57.82698 23.02047,57.82698 Z" id="Path"></path>
                </g>
                <circle id="Oval" fill="#C2E2A5" cx="87.55506" cy="50.76" r="50.68467"></circle>
                <path d="M87.55506,0.07533 C86.27202,0.07533 85.00059,0.12393 83.74158,0.21762 C109.95264,2.16756 130.61277,24.05052 130.61277,50.76 C130.61277,77.46948 109.95264,99.35244 83.74158,101.30238 C85.00059,101.39607 86.27202,101.44467 87.55506,101.44467 C115.54758,101.44467 138.24,78.75252 138.24,50.76 C138.24,22.76748 115.54758,0.07533 87.55506,0.07533 Z" id="Path" fill="#A0C77C"></path>
                <circle id="Oval" fill="#F0F4F7" cx="87.55506" cy="50.76" r="38.91888"></circle>
                <path d="M87.55506,11.84085 C86.37084,11.84085 85.20012,11.89674 84.0429,12.00042 C103.89114,13.77621 119.44962,30.44979 119.44962,50.76 C119.44962,71.07021 103.89114,87.74352 84.0429,89.51931 C85.20012,89.62272 86.37084,89.67861 87.55506,89.67861 C109.04949,89.67861 126.47394,72.25416 126.47394,50.75973 C126.47394,29.26557 109.04949,11.84085 87.55506,11.84085 L87.55506,11.84085 Z" id="Path" fill="#E2EFF1"></path>
                <g id="Group" transform="translate(55.350000, 18.630000)" fill="#7D936A">
                    <path d="M32.20533,7.4223 C31.07025,7.4223 30.15009,6.50241 30.15009,5.36733 L30.15009,2.2302 C30.15009,1.09512 31.06998,0.17523 32.20533,0.17523 C33.34068,0.17523 34.2603,1.09512 34.2603,2.2302 L34.2603,5.36706 C34.2603,6.50214 33.34041,7.4223 32.20533,7.4223 Z" id="Path"></path>
                    <path d="M51.12936,15.26067 C50.60367,15.26067 50.07744,15.06006 49.67595,14.65884 C48.87351,13.85613 48.87351,12.555 49.67595,11.75229 L51.894,9.53424 C52.69671,8.73207 53.99784,8.73207 54.80055,9.53424 C55.60299,10.33695 55.60299,11.63808 54.80055,12.44079 L52.5825,14.65884 C52.18128,15.06006 51.65532,15.26067 51.12936,15.26067 L51.12936,15.26067 Z" id="Path"></path>
                    <path d="M62.10486,34.18524 L58.96827,34.18524 C57.83319,34.18524 56.91303,33.26535 56.91303,32.13 C56.91303,30.99465 57.83292,30.07503 58.96827,30.07503 L62.10486,30.07503 C63.23994,30.07503 64.1601,30.99492 64.1601,32.13 C64.1601,33.26508 63.23994,34.18524 62.10486,34.18524 Z" id="Path"></path>
                    <path d="M53.34741,55.32732 C52.82172,55.32732 52.29549,55.12671 51.894,54.72549 L49.67595,52.50744 C48.87351,51.70473 48.87351,50.4036 49.67595,49.60089 C50.47866,48.79872 51.77979,48.79872 52.5825,49.60089 L54.80055,51.81894 C55.60299,52.62165 55.60299,53.92278 54.80055,54.72549 C54.39933,55.12671 53.87337,55.32732 53.34741,55.32732 Z" id="Path"></path>
                    <path d="M32.20533,64.08477 C31.07025,64.08477 30.15009,63.16488 30.15009,62.02953 L30.15009,58.89294 C30.15009,57.75786 31.06998,56.83797 32.20533,56.83797 C33.34068,56.83797 34.2603,57.75786 34.2603,58.89294 L34.2603,62.02953 C34.2603,63.16488 33.34041,64.08477 32.20533,64.08477 Z" id="Path"></path>
                    <path d="M11.06298,55.32732 C10.53702,55.32732 10.01106,55.12671 9.60984,54.72549 C8.80713,53.92278 8.80713,52.62165 9.60984,51.81894 L11.82789,49.60089 C12.63033,48.79872 13.93173,48.79872 14.73417,49.60089 C15.53688,50.4036 15.53688,51.70473 14.73417,52.50744 L12.51612,54.72549 C12.1149,55.12671 11.58894,55.32732 11.06298,55.32732 L11.06298,55.32732 Z" id="Path"></path>
                    <path d="M5.44239,34.18524 L2.30553,34.18524 C1.17045,34.18524 0.25056,33.26535 0.25056,32.13 C0.25056,30.99465 1.17072,30.07503 2.30553,30.07503 L5.44239,30.07503 C6.57747,30.07503 7.49736,30.99492 7.49736,32.13 C7.49736,33.26508 6.5772,34.18524 5.44239,34.18524 Z" id="Path"></path>
                    <path d="M13.28103,15.26067 C12.75507,15.26067 12.22911,15.06006 11.82789,14.65884 L9.60984,12.44079 C8.80713,11.63808 8.80713,10.33695 9.60984,9.53424 C10.41228,8.73207 11.71368,8.73207 12.51612,9.53424 L14.73417,11.75229 C15.53688,12.555 15.53688,13.85613 14.73417,14.65884 C14.33295,15.06006 13.80699,15.26067 13.28103,15.26067 L13.28103,15.26067 Z" id="Path"></path>
                </g>
                <path d="M96.55119,52.81524 L87.55533,52.81524 C86.42025,52.81524 85.50009,51.89535 85.50009,50.76 L85.50009,33.44679 C85.50009,32.31171 86.41998,31.39182 87.55533,31.39182 C88.69068,31.39182 89.6103,32.31171 89.6103,33.44679 L89.6103,48.70476 L96.55119,48.70476 C97.68627,48.70476 98.60643,49.62465 98.60643,50.75973 C98.60643,51.89481 97.68627,52.81524 96.55119,52.81524 Z" id="Path" fill="#7D936A"></path>
            </g>
        </g>
    </g>
</svg>