<?xml version="1.0" encoding="UTF-8"?>
<svg width="161px" height="100px" viewBox="0 0 161 100" version="1.1" xmlns="http://www.w3.org/2000/svg" xmlns:xlink="http://www.w3.org/1999/xlink">
    <title>Group 13</title>
    <g id="UI-Style-Guide" stroke="none" stroke-width="1" fill="none" fill-rule="evenodd">
        <g id="04.-Iconography-&amp;-Illustration" transform="translate(-544.000000, -1302.000000)" fill-rule="nonzero">
            <g id="Group-13" transform="translate(544.000000, 1302.000000)">
                <g id="cloud" transform="translate(118.800000, 0.000000)" fill="#A3D4F7">
                    <path d="M33.8252344,10.1661328 C33.2985938,10.1661328 32.7730078,10.2185156 32.256914,10.3229297 C31.8677344,8.38054692 30.6094922,6.72363279 28.8428906,5.82679692 C27.0766406,4.92996096 24.9964453,4.89234375 23.1985547,5.72449221 C21.5715235,1.24277346 16.619414,-1.07121096 12.1376953,0.55582029 C7.65597654,2.18285154 5.34199221,7.1353125 6.96902346,11.6166797 C3.043125,11.7407812 -0.05800779,14.9902735 0.000703125,18.9175781 C0.05976558,22.8452344 3.25722654,25.9998047 7.18523442,26.0061328 L33.8252344,26.0061328 C38.1990235,26.0061328 41.7452344,22.4602735 41.7452344,18.0861328 C41.7452344,13.7119922 38.1990235,10.1661328 33.8252344,10.1661328 Z" id="Path"></path>
                </g>
                <g id="cloud-copy" transform="translate(0.000000, 58.500000)" fill="#A3D4F7">
                    <path d="M33.8252344,10.1661328 C33.2985938,10.1661328 32.7730078,10.2185156 32.256914,10.3229297 C31.8677344,8.38054692 30.6094922,6.72363279 28.8428906,5.82679692 C27.0766406,4.92996096 24.9964453,4.89234375 23.1985547,5.72449221 C21.5715235,1.24277346 16.619414,-1.07121096 12.1376953,0.55582029 C7.65597654,2.18285154 5.34199221,7.1353125 6.96902346,11.6166797 C3.043125,11.7407812 -0.05800779,14.9902735 0.000703125,18.9175781 C0.05976558,22.8452344 3.25722654,25.9998047 7.18523442,26.0061328 L33.8252344,26.0061328 C38.1990235,26.0061328 41.7452344,22.4602735 41.7452344,18.0861328 C41.7452344,13.7119922 38.1990235,10.1661328 33.8252344,10.1661328 Z" id="Path"></path>
                </g>
                <g id="mover-truck" transform="translate(34.200000, 4.500000)">
                    <path d="M63.5912748,5.0631048 L63.5912748,65.6695404 L6.7053204,60.9214176 L4.9972356,60.9214176 C2.2372956,60.9214176 5.83213478e-15,58.684122 5.83213478e-15,55.924182 L5.83213478e-15,5.0631048 C5.83213478e-15,2.3029596 2.2372956,0.065664 4.9972356,0.065664 L22.9274064,0.065664 L31.7953296,3.8985948 L40.6632528,0.065664 L58.5936288,0.065664 C61.3539792,0.065664 63.5912748,2.3029596 63.5912748,5.0631048 L63.5912748,5.0631048 Z" id="Path" fill="#E0C09D"></path>
                    <path d="M4.9972356,0.065664 L4.9972356,60.9214176 C2.2372956,60.9214176 0,58.684122 0,55.924182 L0,5.0631048 C0,2.3029596 2.2372956,0.065664 4.9972356,0.065664 Z" id="Path" fill="#C69C6D"></path>
                    <path d="M38.1027672,20.6377848 L32.5884276,17.8694316 C32.0893812,17.6188824 31.501278,17.6188824 31.0022316,17.8694316 L25.487892,20.6377848 C24.3125064,21.22794 22.9272012,20.373282 22.9272012,19.0581552 L22.9272012,0.0654588 L40.6632528,0.0654588 L40.6632528,19.0581552 C40.663458,20.373282 39.278358,21.22794 38.1027672,20.6377848 L38.1027672,20.6377848 Z" id="Path" fill="#EDEDED"></path>
                    <path d="M72.8143992,60.9220332 L61.335306,79.846398 L60.5136852,85.0151808 L33.3476676,85.0151808 L7.9301592,79.846398 L2.9171232,78.4873584 L2.9171232,64.7104356 C2.9171232,62.6180112 4.6131012,60.9220332 6.7055256,60.9220332 L72.8143992,60.9220332 Z" id="Path" fill="#DBDBDB"></path>
                    <path d="M70.4172528,64.8745956 L72.8143992,60.9214176 L6.7053204,60.9214176 C4.72473,60.9214176 3.1024188,62.4407184 2.9339496,64.3776012 C2.9232792,64.482048 2.9171232,64.5922404 2.9171232,64.7104356 L2.9171232,78.489 L7.9293384,79.8461928 L33.3472572,85.0168224 L39.5157744,85.0168224 L14.0978556,79.8461928 L9.0856404,78.489 L9.0856404,67.4176392 C9.0856404,66.0130452 10.2242952,64.8745956 11.628684,64.8745956 L70.4172528,64.8745956 Z" id="Path" fill="#CBCAC8"></path>
                    <path d="M99.9484056,78.4867428 C99.9484056,78.4867428 105.0624,66.3311052 105.0624,55.432728 C105.0624,55.432728 97.2974268,37.791684 93.118734,23.2817868 C92.2997808,20.43792 89.8798572,18.346932 86.9454972,17.962182 C83.491776,17.5091004 82.1587968,11.5135668 76.8941856,11.5629185 C74.5746048,11.5849764 72.1990044,11.7103536 69.8732676,11.9871684 C66.2937588,12.4131636 63.5912748,15.4355544 63.5912748,19.0403028 L63.5912748,78.4867428 L99.9484056,78.4867428 L99.9484056,78.4867428 Z" id="Path" fill="#B5D891"></path>
                    <path d="M71.4122676,11.826702 C69.7031568,13.1658372 68.6217528,15.2428716 68.6217528,17.5532184 L68.6217528,78.4865376 L63.5912748,78.4865376 L63.5912748,19.0400976 C63.5912748,15.4345284 66.2937588,12.412548 69.8728572,11.9853216 C70.3836,11.9258136 70.8968052,11.87082 71.4122676,11.826702 L71.4122676,11.826702 Z" id="Path" fill="#97C96A"></path>
                    <polygon id="Path" fill="#EDEDED" points="61.335306 79.846398 60.5136852 86.73804 33.3476676 86.73804 7.9301592 79.846398 47.8555128 79.846398"></polygon>
                    <polygon id="Path" fill="#DBDBDB" points="61.335306 83.2923216 60.5136852 86.73804 33.3476676 86.73804 7.9301592 83.2923216"></polygon>
                    <path d="M99.9750816,86.7374244 L77.1738732,86.7374244 L77.1738732,78.4865376 L99.9748764,78.4865376 C101.584876,78.4865376 102.890153,79.7918148 102.890153,81.401814 L102.890153,83.8223532 C102.890153,85.4323524 101.585081,86.7374244 99.9750816,86.7374244 L99.9750816,86.7374244 Z" id="Path" fill="#EDEDED"></path>
                    <path d="M102.891179,81.40284 L102.891179,83.8235844 C102.891179,85.4335836 101.585081,86.7376296 99.9748764,86.7376296 L77.1742836,86.7376296 L77.1742836,83.380968 L99.9750816,83.380968 C101.426666,83.380968 102.629138,82.3215204 102.853832,80.933958 C102.878046,81.085806 102.891179,81.2444256 102.891179,81.40284 L102.891179,81.40284 Z" id="Path" fill="#DBDBDB"></path>
                    <path d="M2.9173284,86.7374244 L21.3133032,86.7374244 L21.3133032,78.4865376 L2.9173284,78.4865376 C1.3073292,78.4865376 0.002052,79.7918148 0.002052,81.401814 L0.002052,83.8223532 C0.002052,85.4323524 1.3073292,86.7374244 2.9173284,86.7374244 Z" id="Path" fill="#EDEDED"></path>
                    <path d="M0.001026,81.40284 L0.001026,83.8235844 C0.001026,85.4335836 1.307124,86.7376296 2.9173284,86.7376296 L21.3128928,86.7376296 L21.3128928,83.380968 L2.9173284,83.380968 C1.4657436,83.380968 0.2632716,82.3215204 0.0385776,80.933958 C0.014364,81.085806 0.001026,81.2444256 0.001026,81.40284 L0.001026,81.40284 Z" id="Path" fill="#DBDBDB"></path>
                    <path d="M105.0624,55.433754 C105.0624,55.433754 97.2323784,57.1988844 87.8485824,56.8839024 C87.867666,56.657772 87.8824404,56.4293844 87.8951628,56.201202 C88.2101448,51.2905608 84.7051236,46.9760256 79.885386,46.2340224 C79.747902,46.2128868 79.6085712,46.1938032 79.466778,46.1790288 C78.1477524,46.0331316 76.8898764,45.9570024 75.7715364,45.9254016 C74.919546,36.622044 74.2918392,22.3169364 76.8919284,11.5634304 C78.5345544,11.548656 80.1494784,11.584566 81.6968916,11.654334 C82.235952,11.6795736 82.7665992,11.7072756 83.286576,11.7388764 C86.0727816,11.9143224 88.5883284,12.1870332 90.5902596,12.4513308 C93.5221572,12.8340288 95.9426964,14.9268636 96.7608288,17.7701148 C100.942394,32.2798068 105.0624,55.433754 105.0624,55.433754 Z" id="Path" fill="#D3EFFB"></path>
                    <path d="M76.8939804,11.5587108 C76.8939804,11.560968 76.8939804,11.560968 76.8917232,11.56302" id="Path" fill="#D3EFFB"></path>
                    <path d="M79.885386,46.2338172 C79.747902,46.2126816 79.6085712,46.193598 79.466778,46.1788236 C78.1477524,46.0329264 76.8898764,45.9567972 75.7715364,45.9251964 C74.919546,36.6218388 74.2918392,22.3167312 76.8919284,11.5632252 C78.5345544,11.5484508 80.1494784,11.5843608 81.6968916,11.6541288 C80.5428468,19.5518664 79.6783392,33.7510908 79.885386,46.2338172 L79.885386,46.2338172 Z" id="Path" fill="#B1E4F9"></path>
                    <g id="Group" transform="translate(58.687200, 65.664000)">
                        <circle id="Oval" fill="#3B454D" cx="14.1271992" cy="14.129046" r="14.1233004"></circle>
                        <path d="M16.2235224,28.0953684 C15.5385648,28.1987892 14.838012,28.2517308 14.1267888,28.2517308 C6.3275472,28.2517308 0.004104,21.9282876 0.004104,14.129046 C0.004104,6.3277524 6.3275472,0.004104 14.1267888,0.004104 C14.8382172,0.004104 15.5385648,0.0570456 16.2235224,0.1604664 C9.417654,1.1714868 4.195314,7.0389756 4.195314,14.129046 C4.195314,21.2168592 9.417654,27.084348 16.2235224,28.0953684 Z" id="Path" fill="#282A2C"></path>
                        <circle id="Oval" fill="#EDEDED" cx="14.1271992" cy="14.129046" r="6.9445836"></circle>
                        <path d="M21.0717828,14.129046 C21.0717828,17.9636184 17.9617716,21.0736296 14.1271992,21.0736296 C13.5479196,21.0736296 12.9885444,21.0030408 12.4511256,20.86884 C15.4774152,20.117808 17.7173784,17.3843388 17.7173784,14.129046 C17.7173784,10.871496 15.4774152,8.138232 12.4511256,7.389252 C12.9885444,7.254846 13.5479196,7.1844624 14.1271992,7.1844624 C17.9617716,7.1844624 21.0717828,10.2922164 21.0717828,14.129046 Z" id="Path" fill="#DBDBDB"></path>
                        <path d="M14.1271992,22.6590048 C9.4236048,22.6590048 5.5972404,18.8324352 5.5972404,14.129046 C5.5972404,9.4254516 9.42381,5.5990872 14.1271992,5.5990872 C18.8307936,5.5990872 22.657158,9.4256568 22.657158,14.129046 C22.657158,18.8324352 18.8307936,22.6590048 14.1271992,22.6590048 Z M14.1271992,8.7698376 C11.1723192,8.7698376 8.7679908,11.1739608 8.7679908,14.129046 C8.7679908,17.083926 11.172114,19.4880492 14.1271992,19.4880492 C17.0820792,19.4880492 19.4864076,17.083926 19.4864076,14.129046 C19.4864076,11.1739608 17.0820792,8.7698376 14.1271992,8.7698376 Z" id="Shape" fill="#282A2C"></path>
                    </g>
                    <g id="Group" transform="translate(6.771600, 65.664000)">
                        <circle id="Oval" fill="#3B454D" cx="14.2763796" cy="14.129046" r="14.1233004"></circle>
                        <path d="M16.3727028,28.0953684 C15.6877452,28.1987892 14.9871924,28.2517308 14.2759692,28.2517308 C6.4767276,28.2517308 0.1532844,21.9282876 0.1532844,14.129046 C0.1532844,6.3277524 6.4767276,0.004104 14.2759692,0.004104 C14.9873976,0.004104 15.6877452,0.0570456 16.3727028,0.1604664 C9.5668344,1.1714868 4.3444944,7.0389756 4.3444944,14.129046 C4.3444944,21.2168592 9.5666292,27.084348 16.3727028,28.0953684 Z" id="Path" fill="#282A2C"></path>
                        <circle id="Oval" fill="#EDEDED" cx="14.2763796" cy="14.129046" r="6.9445836"></circle>
                        <path d="M21.2209632,14.129046 C21.2209632,17.9636184 18.110952,21.0736296 14.2763796,21.0736296 C13.6971,21.0736296 13.1377248,21.0030408 12.600306,20.86884 C15.6265956,20.117808 17.8665588,17.3843388 17.8665588,14.129046 C17.8665588,10.871496 15.6265956,8.138232 12.600306,7.389252 C13.1377248,7.254846 13.6971,7.1844624 14.2763796,7.1844624 C18.110952,7.1844624 21.2209632,10.2922164 21.2209632,14.129046 Z" id="Path" fill="#DBDBDB"></path>
                        <path d="M14.2761744,22.6590048 C9.57258,22.6590048 5.7462156,18.8324352 5.7462156,14.129046 C5.7462156,9.4254516 9.5727852,5.5990872 14.2761744,5.5990872 C18.9795636,5.5990872 22.8061332,9.4256568 22.8061332,14.129046 C22.8063384,18.8324352 18.9797688,22.6590048 14.2761744,22.6590048 L14.2761744,22.6590048 Z M14.2761744,8.7698376 C11.3212944,8.7698376 8.916966,11.1739608 8.916966,14.129046 C8.916966,17.083926 11.3210892,19.4880492 14.2761744,19.4880492 C17.2312596,19.4880492 19.6353828,17.083926 19.6353828,14.129046 C19.6353828,11.1739608 17.2312596,8.7698376 14.2761744,8.7698376 L14.2761744,8.7698376 Z" id="Shape" fill="#282A2C"></path>
                    </g>
                    <path d="M79.7589828,55.5509232 L73.7507268,55.5509232 C72.8749332,55.5509232 72.1653516,54.8411364 72.1653516,53.965548 C72.1653516,53.0899596 72.8751384,52.3801728 73.7507268,52.3801728 L79.7589828,52.3801728 C80.6347764,52.3801728 81.344358,53.0899596 81.344358,53.965548 C81.344358,54.8411364 80.6347764,55.5509232 79.7589828,55.5509232 L79.7589828,55.5509232 Z" id="Path" fill="#EDEDED"></path>
                    <path d="M93.2902812,63.42732 C91.4990904,63.42732 90.04689,64.8793152 90.04689,66.6707112 L90.04689,68.02893 C90.04689,69.8201208 91.4988852,71.2723212 93.2902812,71.2723212 C95.081472,71.2723212 96.5336724,69.820326 96.5336724,68.02893 L96.5336724,66.6707112 C96.5334672,64.8793152 95.081472,63.42732 93.2902812,63.42732 L93.2902812,63.42732 Z" id="Path" fill="#FFD064"></path>
                    <path d="M94.2071148,71.1405828 C93.9153204,71.2251252 93.6089568,71.2717056 93.2896656,71.2717056 C91.4990904,71.2717056 90.04689,69.8195052 90.04689,68.02893 L90.04689,66.6717372 C90.04689,64.87911 91.4990904,63.4269096 93.2896656,63.4269096 C93.6089568,63.4269096 93.9153204,63.47349 94.2071148,63.5580324 C92.8626444,63.9532476 91.8797364,65.1984012 91.8797364,66.6719424 L91.8797364,68.0291352 C91.8797364,69.502266 92.8626444,70.7451624 94.2071148,71.1405828 L94.2071148,71.1405828 Z" id="Path" fill="#FFC250"></path>
                    <g id="Group" transform="translate(6.156000, 32.421600)">
                        <path d="M19.3323024,21.9147444 C13.9790448,22.363722 8.6257872,22.363722 3.2727348,21.9147444 C1.8076068,21.7918296 0.6488424,20.6330652 0.5259276,19.1679372 C0.07695,13.8146796 0.07695,8.461422 0.5259276,3.1083696 C0.6488424,1.6432416 1.8076068,0.4844772 3.2727348,0.3615624 C8.6259924,-0.0874152 13.97925,-0.0874152 19.3323024,0.3615624 C20.7974304,0.4844772 21.9561948,1.6432416 22.0791096,3.1083696 C22.5280872,8.4616272 22.5280872,13.8148848 22.0791096,19.1679372 C21.9564,20.6330652 20.7974304,21.7920348 19.3323024,21.9147444 L19.3323024,21.9147444 Z" id="Path" fill="#EDEDED"></path>
                        <g id="Group-3" transform="translate(3.420000, 3.146400)" fill="#E0C09D">
                            <g id="Group-2" transform="translate(3.009600, 5.266800)">
                                <path d="M7.65596997,0.343919031 C7.39024888,0.16517505 7.06626465,0.0554382621 6.68441473,0.0146284247 C6.1320677,-0.0443370129 5.65650402,0.0749595434 5.25748516,0.372518056 C4.85838684,0.670156925 4.63002404,1.09544711 4.57207889,1.64830826 C4.51429269,2.20133009 4.63685982,2.66397577 4.9398598,3.03648626 C5.24262131,3.40907711 5.64688624,3.62236487 6.15281351,3.67642989 C6.53474292,3.71723976 6.90260332,3.6430108 7.25639474,3.45398399 C7.1742064,3.84087436 7.02954219,4.13795088 6.82272007,4.34537424 C6.61565948,4.55263693 6.34445385,4.63827337 6.00902366,4.60252459 C5.93858032,4.59503033 5.70544565,4.5396953 5.30961964,4.4365195 C5.06724223,4.37334335 4.81543088,4.49877509 4.71984883,4.73029638 C4.61827615,4.97632837 4.72436355,5.2590104 4.9627301,5.37745927 C5.30091068,5.54552443 5.64411119,5.64001466 5.99233163,5.66092996 C6.59734505,5.69726911 7.13247634,5.56115468 7.60184013,5.16831957 C7.83099777,4.97117903 8.02613549,4.69024972 8.18685581,4.32480863 C8.34765565,3.95968889 8.45440511,3.52660628 8.5067068,3.02596244 C8.58794129,2.24872737 8.50320942,1.58556713 8.25298804,1.03664235 C8.12064412,0.753624343 7.92153214,0.522663012 7.65596997,0.343919031 Z M7.00370929,2.50145932 C6.82907894,2.62517427 6.62170042,2.67425856 6.38165322,2.64855157 C6.14160602,2.62300526 5.96276291,2.52355129 5.84544182,2.35002904 C5.72756433,2.17666747 5.68090616,1.97518886 5.70491088,1.74559321 C5.72899509,1.51615823 5.82231146,1.33484352 5.98501894,1.20197047 C6.14756744,1.06893675 6.34501025,1.01487173 6.57726782,1.03969502 C6.8096844,1.06451836 6.99432995,1.16871206 7.13160198,1.35203507 C7.26911248,1.53559916 7.32586534,1.74205847 7.30194011,1.97149344 C7.2778559,2.20108909 7.17833964,2.37766406 7.00370929,2.50145932 L7.00370929,2.50145932 L7.00370929,2.50145932 Z" id="Fill-13"></path>
                                <path d="M3.09777701,0.343919031 C2.83205593,0.16517505 2.5080717,0.0554382621 2.12622177,0.0146284247 C1.57387474,-0.0443370129 1.09831107,0.0749595434 0.699292203,0.372518056 C0.300193887,0.670156925 0.0718310817,1.09544711 0.0138859362,1.64830826 C-0.0439002648,2.20133009 0.0786668614,2.66397577 0.381666844,3.03648626 C0.684428353,3.40907711 1.08869329,3.62236487 1.59462055,3.67642989 C1.97654997,3.71723976 2.34441036,3.6430108 2.69820178,3.45398399 C2.61601345,3.84087436 2.47134923,4.13795088 2.26452711,4.34537424 C2.05746652,4.55263693 1.78626089,4.63827337 1.4508307,4.60252459 C1.38038736,4.59503033 1.14725269,4.5396953 0.751426682,4.4365195 C0.509049271,4.37334335 0.257237919,4.49877509 0.161655875,4.73029638 C0.0600831876,4.97632837 0.166170587,5.2590104 0.404537144,5.37745927 C0.742717724,5.54552443 1.08591823,5.64001466 1.43413867,5.66092996 C2.0391521,5.69726911 2.57428339,5.56115468 3.04364717,5.16831957 C3.27280481,4.97117903 3.46794254,4.69024972 3.62866285,4.32480863 C3.78946269,3.95968889 3.89621215,3.52660628 3.94851385,3.02596244 C4.02974833,2.24872737 3.94501647,1.58556713 3.69479509,1.03664235 C3.56245116,0.753624343 3.36333919,0.522663012 3.09777701,0.343919031 Z M2.44551633,2.50145932 C2.27088599,2.62517427 2.06350747,2.67425856 1.82346027,2.64855157 C1.58341306,2.62300526 1.40456995,2.52355129 1.28724886,2.35002904 C1.16937137,2.17666747 1.1227132,1.97518886 1.14671792,1.74559321 C1.17080213,1.51615823 1.26411851,1.33484352 1.42682598,1.20197047 C1.58937448,1.06893675 1.78681729,1.01487173 2.01907486,1.03969502 C2.25149145,1.06451836 2.43613699,1.16871206 2.57340902,1.35203507 C2.71091953,1.53559916 2.76767238,1.74205847 2.74374715,1.97149344 C2.71966294,2.20108909 2.62014668,2.37766406 2.44551633,2.50145932 L2.44551633,2.50145932 L2.44551633,2.50145932 Z" id="Fill-13-Copy"></path>
                            </g>
                            <path d="M14.5358942,4.16488413 L14.6253524,4.07435865 C14.9873727,3.70801906 15.048494,3.14023471 14.7727461,2.70523304 C14.501631,2.27756057 14.180345,1.87608658 13.8088882,1.50081109 C13.4161703,1.1040559 12.9807517,0.750099393 12.5026323,0.438941575 C12.0805235,0.164215668 11.5234611,0.224015191 11.1692689,0.582062713 L11.0695904,0.682826208 C10.8058504,0.949436922 10.8059678,1.37869772 11.0698536,1.64516411 L11.9380558,2.5218567 L11.9380558,2.5218567 L11.6470582,2.81732653 C10.4121664,1.747835 8.81156031,1.09809057 7.05730811,1.09809057 C3.15940264,1.09857258 2.67306177e-14,4.2914623 2.67306177e-14,8.23154207 C2.67306177e-14,12.1707381 3.15940264,15.3641902 7.05730811,15.3641902 C10.9560879,15.3641902 14.1154905,12.1707381 14.1154905,8.23154207 C14.1154905,6.45775907 13.4726887,4.84054776 12.4150502,3.59327626 L12.7059684,3.29828843 L13.562995,4.16502787 C13.8286043,4.43364734 14.2616822,4.43608759 14.5303017,4.17047831 C14.5321766,4.16862438 14.5340409,4.16675962 14.5358942,4.16488413 Z M12.6024778,8.12686637 C12.6024778,11.2263272 10.1163201,13.7391062 7.04959796,13.7391062 C3.98287579,13.7391062 1.49671812,11.2263272 1.49671812,8.12686637 C1.49671812,5.02732519 3.98287579,2.51462661 7.04959796,2.51462661 C10.1163201,2.51462661 12.6024778,5.02732519 12.6024778,8.12686637 L12.6024778,8.12686637 L12.6024778,8.12686637 Z" id="Fill-14"></path>
                        </g>
                    </g>
                </g>
            </g>
        </g>
    </g>
</svg>