<?xml version="1.0" encoding="UTF-8"?>
<svg width="16px" height="16px" viewBox="0 0 16 16" version="1.1" xmlns="http://www.w3.org/2000/svg" xmlns:xlink="http://www.w3.org/1999/xlink">
    <title>Icons/16px/Distance</title>
    <g id="Icons/16px/Distance" stroke="none" stroke-width="1" fill="none" fill-rule="evenodd">
        <g id="distance" transform="translate(1.000000, 1.000000)" fill="#2C2E2E" fill-rule="nonzero">
            <path d="M2.625,8.75000002 C3.10824915,8.75000002 3.49999999,9.14175085 3.5,9.625 C3.5,11.0747475 4.67525253,12.25 6.125,12.25 C6.60824916,12.25 7,12.6417508 7,13.125 C7,13.5710761 6.66620046,13.9391892 6.23475814,13.9931825 L6.124,14 L5.91313427,13.9947114 C3.59652274,13.8815898 1.75280777,11.9690157 1.75,9.625 C1.75,9.14175085 2.14175085,8.75000002 2.625,8.75000002 Z M10.0625,3.5 C12.2361217,3.50241112 13.9975889,5.2638783 14,7.4375 C14,8.854125 12.816125,10.812375 10.38275,13.423375 C10.2999866,13.5122967 10.1839778,13.5628042 10.0625,13.5628042 C9.94102223,13.5628042 9.82501337,13.5122967 9.74225,13.423375 C7.308875,10.812375 6.125,8.854125 6.125,7.4375 C6.12741112,5.2638783 7.8888783,3.50241112 10.0625,3.5 Z M10.0625,6.125 C9.33762627,6.125 8.75,6.71262627 8.75,7.4375 C8.75,8.16237373 9.33762627,8.75 10.0625,8.75 C10.7873737,8.75 11.375,8.16237373 11.375,7.4375 C11.375,6.71262627 10.7873737,6.125 10.0625,6.125 Z M3.0625,-2.66453526e-15 C4.75387205,-2.66453526e-15 6.125,1.37112795 6.125,3.0625 C6.125,4.151 5.229875,5.677 3.388,7.72975 C3.30502126,7.82214459 3.18668628,7.87492142 3.0625,7.87492142 C2.93831372,7.87492142 2.81997874,7.82214459 2.737,7.72975 C0.895125,5.677 0,4.151 0,3.0625 C0,1.37112795 1.37112795,-2.66453526e-15 3.0625,-2.66453526e-15 Z M3.0625,2.1875 C2.57925084,2.1875 2.1875,2.57925084 2.1875,3.0625 C2.1875,3.54574916 2.57925084,3.9375 3.0625,3.9375 C3.29456443,3.9375 3.5171241,3.84531276 3.68121843,3.68121843 C3.84531276,3.5171241 3.9375,3.29456443 3.9375,3.0625 C3.9375,2.57925084 3.54574916,2.1875 3.0625,2.1875 Z" id="Combined-Shape"></path>
        </g>
    </g>
</svg>