<?xml version="1.0" encoding="UTF-8"?>
<svg width="16px" height="16px" viewBox="0 0 16 16" version="1.1" xmlns="http://www.w3.org/2000/svg" xmlns:xlink="http://www.w3.org/1999/xlink">
    <title>Icons/16px/Download</title>
    <defs>
        <filter id="filter-1">
            <feColorMatrix in="SourceGraphic" type="matrix" values="0 0 0 0 0.172549 0 0 0 0 0.180392 0 0 0 0 0.180392 0 0 0 1.000000 0"></feColorMatrix>
        </filter>
    </defs>
    <g id="Icons/16px/Download" stroke="none" stroke-width="1" fill="none" fill-rule="evenodd">
        <g filter="url(#filter-1)" id="download-(1)">
            <g transform="translate(1.000000, 1.000000)">
                <path d="M11.9371622,3.39599331 L9.3425777,3.39599331 C9.05597635,3.39599331 8.82364865,3.65519637 8.82364865,3.97495139 C8.82364865,4.2947064 9.05597635,4.55390947 9.3425777,4.55390947 L11.9371622,4.55390947 C12.2237635,4.55390947 12.4560912,4.81311253 12.4560912,5.13286755 L12.4560912,12.6591869 C12.4560912,12.9789419 12.2237635,13.238145 11.9371622,13.238145 L1.55879392,13.238145 C1.27219257,13.238145 1.03986486,12.9789419 1.03986486,12.6591869 L1.03986486,5.13283363 C1.03986486,4.81307861 1.27219257,4.55387554 1.55879392,4.55387554 L4.15337838,4.55387554 C4.43997973,4.55387554 4.67230743,4.29467248 4.67230743,3.97491746 C4.67230743,3.65516245 4.43997973,3.39599331 4.15337838,3.39599331 L1.55879392,3.39599331 C0.69902027,3.39599331 0.00203716216,4.1736025 0.00203716216,5.13283363 L0.00203716216,12.659153 C0.00203716216,13.6183841 0.69902027,14.3959933 1.55879392,14.3959933 L11.9371622,14.3959933 C12.7969358,14.3959933 13.4939189,13.6183841 13.4939189,12.659153 L13.4939189,5.13283363 C13.4939189,4.1736025 12.7969358,3.39599331 11.9371622,3.39599331 Z" id="Path" fill="#000000" fill-rule="nonzero"></path>
                <path d="M9.69771284,7.34863933 C9.49661149,7.15622762 9.17781081,7.15622762 8.97673986,7.34863933 L7.26689189,9.04169372 L7.26689189,0.514152301 C7.26689189,0.230189121 7.03456419,0 6.74796284,0 C6.46136149,0 6.22903378,0.230189121 6.22903378,0.514152301 L6.22903378,9.04172385 L4.52021959,7.34863933 C4.31407095,7.15137741 3.98557095,7.15701088 3.78647635,7.36126192 C3.59224662,7.56051213 3.59224662,7.87640837 3.78647635,8.07562845 L6.38106081,10.6463297 C6.58346959,10.8473573 6.91203041,10.8477791 7.11492568,10.6472335 C7.11522973,10.6469322 7.11553378,10.646631 7.11586824,10.6463297 L9.7104527,8.07562845 C9.9095777,7.87137741 9.90386149,7.54590126 9.69771284,7.34863933 Z" id="Path" fill="#000000" fill-rule="nonzero"></path>
            </g>
        </g>
    </g>
</svg>