<?xml version="1.0" encoding="UTF-8"?>
<svg width="16px" height="16px" viewBox="0 0 16 16" version="1.1" xmlns="http://www.w3.org/2000/svg" xmlns:xlink="http://www.w3.org/1999/xlink">
    <title>Icons/16px/Exchange</title>
    <g id="Icons/16px/Exchange" stroke="none" stroke-width="1" fill="none" fill-rule="evenodd">
        <g id="direction" transform="translate(1.500000, 1.500000)" fill="#2C2E2E" fill-rule="nonzero">
            <path d="M12.1865801,4.93841991 C12.4794733,5.23131313 12.4794733,5.70618687 12.1865801,5.99908009 L7.27875,10.90575 L9.59375,10.90625 C10.0079636,10.90625 10.34375,11.2420364 10.34375,11.65625 C10.34375,12.0704636 10.0079636,12.40625 9.59375,12.40625 L5.46875,12.40625 L5.44033812,12.405715 C5.42398171,12.4050988 5.40764161,12.4039502 5.39134605,12.4022693 L5.46875,12.40625 C5.42613109,12.40625 5.38434245,12.4026952 5.34366442,12.3958658 C5.32454048,12.3926075 5.30480451,12.388488 5.28522834,12.3835681 C5.2721023,12.380328 5.25935222,12.37675 5.24674433,12.3728484 C5.22774723,12.3669374 5.20866509,12.3601972 5.18982678,12.3526626 C5.17314454,12.345975 5.15702166,12.338826 5.14120945,12.3311377 C5.12954393,12.3255214 5.11761862,12.3193403 5.10583169,12.3128176 C5.08355101,12.3004024 5.06213487,12.2870676 5.04147441,12.2727209 C5.03358345,12.2673217 5.02539813,12.2613948 5.01730842,12.2552823 C4.96148204,12.213051 4.91187707,12.1634391 4.86985058,12.1077843 L4.93841991,12.1865801 C4.90506344,12.1532236 4.87550581,12.1175068 4.84974702,12.0799674 C4.83751511,12.0620323 4.82587698,12.0433773 4.81505847,12.0241986 C4.80755904,12.0110203 4.80044542,11.997436 4.79377641,11.9836903 C4.78437056,11.9642693 4.7757008,11.9442745 4.7678981,11.9238512 C4.76451126,11.9149199 4.76128249,11.9059334 4.75823065,11.8969003 C4.75049691,11.8741953 4.74380894,11.8507844 4.73825862,11.8269368 C4.73577577,11.8159537 4.73353833,11.8052615 4.73153606,11.794534 C4.72768984,11.7742808 4.72469578,11.7534882 4.72257212,11.7324387 C4.72062096,11.7129362 4.71939297,11.6931565 4.71894403,11.6733625 C4.71881477,11.6677408 4.71875,11.662003 4.71875,11.65625 L4.71875,7.53125 C4.71875,7.11703644 5.05453644,6.78125 5.46875,6.78125 C5.88296356,6.78125 6.21875,7.11703644 6.21875,7.53125 L6.21875,9.84475 L11.1259199,4.93841991 C11.4188131,4.6455267 11.8936869,4.6455267 12.1865801,4.93841991 Z M7.53125,0.59375 L7.54836249,0.593944033 C7.56815653,0.594392973 7.58793619,0.595620956 7.60765153,0.597627981 L7.53125,0.59375 C7.57857853,0.59375 7.62488314,0.598133898 7.66977992,0.606517779 C7.68026146,0.608538333 7.69095368,0.610775773 7.70160237,0.613248376 C7.72578442,0.618808935 7.74919529,0.625496915 7.77210908,0.63326225 C7.78093341,0.636282491 7.78991995,0.639511264 7.79885448,0.642916966 C7.81927448,0.650700803 7.83926928,0.659370558 7.85879055,0.668862345 C7.87243601,0.675445423 7.88602028,0.682559038 7.89942159,0.690117254 C7.91837732,0.700876979 7.93703226,0.712515106 7.95511588,0.724925314 C7.96432482,0.731167888 7.97356899,0.737824797 7.98269158,0.744717748 C8.03843913,0.786877072 8.08805104,0.836482044 8.13008525,0.892130746 L8.06158009,0.813419914 C8.09399515,0.845834974 8.12282277,0.880478982 8.14806295,0.916858573 C8.1620676,0.937134868 8.1754024,0.95855101 8.1876535,0.980651093 C8.19434027,0.992618621 8.20052141,1.00454393 8.20636103,1.01659314 C8.21382599,1.03202166 8.22097499,1.04814454 8.22756074,1.06455419 C8.23519724,1.08366509 8.24193736,1.10274723 8.24788292,1.12202178 C8.25174996,1.13435222 8.25532798,1.1471023 8.25857271,1.15998486 C8.26348799,1.17980451 8.26760749,1.19954048 8.27092662,1.21938425 C8.27346543,1.23414857 8.27559056,1.24979364 8.27722578,1.26558418 C8.2789502,1.28264161 8.28009877,1.29898171 8.280715,1.31533812 C8.28106151,1.32416626 8.28125,1.33393612 8.28125,1.34375 L8.28125,5.46875 C8.28125,5.88296356 7.94546356,6.21875 7.53125,6.21875 C7.11703644,6.21875 6.78125,5.88296356 6.78125,5.46875 L6.78075,3.15375 L1.87408009,8.06158009 C1.58118687,8.3544733 1.10631313,8.3544733 0.813419914,8.06158009 C0.520526695,7.76868687 0.520526695,7.29381313 0.813419914,7.00091991 L5.71975,2.09375 L3.40625,2.09375 C2.99203644,2.09375 2.65625,1.75796356 2.65625,1.34375 C2.65625,0.929536438 2.99203644,0.59375 3.40625,0.59375 L7.53125,0.59375 Z" id="Combined-Shape"></path>
        </g>
    </g>
</svg>