<?xml version="1.0" encoding="UTF-8"?>
<svg width="16px" height="16px" viewBox="0 0 16 16" version="1.1" xmlns="http://www.w3.org/2000/svg" xmlns:xlink="http://www.w3.org/1999/xlink">
    <title>Icons/16px/Location</title>
    <g id="Icons/16px/Location" stroke="none" stroke-width="1" fill="none" fill-rule="evenodd">
        <g id="pin-3" transform="translate(2.000000, 1.200000)" fill="#2C2E2E" fill-rule="nonzero">
            <path d="M6,0 C2.65714286,0 0,2.65714286 0,6 C0,7.62857143 0.6,9.17142857 1.8,10.2857143 C1.88571429,10.3714286 5.31428571,13.4571429 5.4,13.5428571 C5.74285714,13.8 6.25714286,13.8 6.51428571,13.5428571 C6.6,13.4571429 10.1142857,10.3714286 10.1142857,10.2857143 C11.3142857,9.17142857 11.9142857,7.62857143 11.9142857,6 C12,2.65714286 9.34285714,0 6,0 Z M6,7.71428571 C5.05714286,7.71428571 4.28571429,6.94285714 4.28571429,6 C4.28571429,5.05714286 5.05714286,4.28571429 6,4.28571429 C6.94285714,4.28571429 7.71428571,5.05714286 7.71428571,6 C7.71428571,6.94285714 6.94285714,7.71428571 6,7.71428571 Z" id="Shape"></path>
        </g>
    </g>
</svg>