<?xml version="1.0" encoding="UTF-8"?>
<svg width="16px" height="16px" viewBox="0 0 16 16" version="1.1" xmlns="http://www.w3.org/2000/svg" xmlns:xlink="http://www.w3.org/1999/xlink">
    <title>Icons/16px/Message</title>
    <g id="Icons/16px/Message" stroke="none" stroke-width="1" fill="none" fill-rule="evenodd">
        <g id="b-chat" transform="translate(1.000000, 2.000000)" fill="#2C2E2E" fill-rule="nonzero">
            <path d="M13,3.5 C13.5522847,3.5 14,3.94771525 14,4.5 L14,4.5 L14,10.375 C14,10.9272847 13.5522847,11.375 13,11.375 L13,11.375 L11.375,11.375 L11.375,13.5171573 C11.375,13.5702006 11.3539286,13.6210714 11.3164214,13.6585786 C11.2383165,13.7366835 11.1116835,13.7366835 11.0335786,13.6585786 L11.0335786,13.6585786 L8.75,11.375 L4.82875358,11.375 C4.77881537,11.375 4.73068379,11.3563178 4.69382271,11.3226268 C4.6122907,11.2481065 4.60660655,11.1216011 4.68112681,11.0400691 L4.68112681,11.0400691 L5.91502681,9.69006914 C5.95291694,9.64861385 6.00649128,9.625 6.06265358,9.625 L6.06265358,9.625 L11.375,9.625 C11.858,9.625 12.25,9.233 12.25,8.75 L12.25,8.75 L12.25,3.5 Z M8.5,0 C9.6045695,-2.02906125e-16 10.5,0.8954305 10.5,2 L10.5,5.875 C10.5,6.9795695 9.6045695,7.875 8.5,7.875 L5.25,7.875 L2.96642136,10.1585786 C2.8883165,10.2366835 2.7616835,10.2366835 2.68357864,10.1585786 C2.64607137,10.1210714 2.625,10.0702006 2.625,10.0171573 L2.625,7.875 L2,7.875 C0.8954305,7.875 5.59687675e-13,6.9795695 -2.22932783e-13,5.875 L-2.22932783e-13,2 C-2.23068054e-13,0.8954305 0.8954305,2.02906125e-16 2,0 L8.5,0 Z" id="Combined-Shape"></path>
        </g>
    </g>
</svg>