<?xml version="1.0" encoding="UTF-8"?>
<svg width="14px" height="14px" viewBox="0 0 14 14" version="1.1" xmlns="http://www.w3.org/2000/svg" xmlns:xlink="http://www.w3.org/1999/xlink">
    <title>Icons/16px/Next</title>
    <g id="Icons/16px/Next" stroke="none" stroke-width="1" fill="none" fill-rule="evenodd">
        <path d="M7,0 C10.8659932,0 14,3.13400675 14,7 C14,10.8659932 10.8659932,14 7,14 C3.13400675,14 0,10.8659932 0,7 C0,3.13400675 3.13400675,0 7,0 Z M7,1.55555556 C3.99311636,1.55555556 1.55555556,3.99311636 1.55555556,7 C1.55555556,10.0068836 3.99311636,12.4444444 7,12.4444444 C10.0068836,12.4444444 12.4444444,10.0068836 12.4444444,7 C12.4444444,3.99311636 10.0068836,1.55555556 7,1.55555556 Z M6.86393644,4.69969992 L8.68211826,6.51788174 C8.94838482,6.7841483 8.94838482,7.2158517 8.68211826,7.48211826 L6.86393644,9.30030008 C6.59766988,9.56656664 6.16596648,9.56656664 5.89969992,9.30030008 C5.63343336,9.03403352 5.63343336,8.60233012 5.89969992,8.33606356 L7.23576348,7 L5.89969992,5.66393644 C5.63343336,5.39766988 5.63343336,4.96596648 5.89969992,4.69969992 C6.16596648,4.43343336 6.59766988,4.43343336 6.86393644,4.69969992 Z" id="Combined-Shape" fill="#2C2E2E" fill-rule="nonzero"></path>
    </g>
</svg>