<?xml version="1.0" encoding="UTF-8"?>
<svg width="16px" height="16px" viewBox="0 0 16 16" version="1.1" xmlns="http://www.w3.org/2000/svg" xmlns:xlink="http://www.w3.org/1999/xlink">
    <title>Icons/16px/Photo</title>
    <g id="Icons/16px/Photo" stroke="none" stroke-width="1" fill="none" fill-rule="evenodd">
        <path d="M14.125,1.875 L1.875,1.875 C1.35,1.875 1,2.225 1,2.75 L1,13.25 C1,13.775 1.35,14.125 1.875,14.125 L14.125,14.125 C14.65,14.125 15,13.775 15,13.25 L15,2.75 C15,2.225 14.65,1.875 14.125,1.875 Z M6.25,4.5 C6.775,4.5 7.125,4.85 7.125,5.375 C7.125,5.9 6.775,6.25 6.25,6.25 C5.725,6.25 5.375,5.9 5.375,5.375 C5.375,4.85 5.725,4.5 6.25,4.5 Z M2.75,11.5 L4.5,8 L7.125,9.75 L9.75,6.25 L13.25,11.5 L2.75,11.5 Z" id="Shape" fill="#2C2E2E" fill-rule="nonzero"></path>
    </g>
</svg>