<?xml version="1.0" encoding="UTF-8"?>
<svg width="15px" height="17px" viewBox="0 0 15 17" version="1.1" xmlns="http://www.w3.org/2000/svg" xmlns:xlink="http://www.w3.org/1999/xlink">
    <title>Icons/16px/Printer</title>
    <defs>
        <path d="M11.9709652,-1.77635684e-15 C12.1841524,-1.77635684e-15 12.3570024,0.181901186 12.3570024,0.406216915 L12.3570024,0.406216915 L12.3570024,3.52005827 L12.6841745,3.52005827 C13.9610107,3.52005827 15,4.61331405 15,5.95718536 L15,5.95718536 L15,10.9889245 C15,12.3327958 13.9609775,13.4260167 12.6841413,13.4260167 L12.6841413,13.4260167 L12.3569692,13.4260167 L12.3569692,16.5937831 C12.3569692,16.8180988 12.1841524,17 11.9709652,17 L11.9709652,17 L3.02923369,17 C2.81591391,17 2.64322963,16.8181337 2.64322963,16.5937831 L2.64322963,16.5937831 L2.64322963,13.4260167 L2.31585867,13.4260167 C1.03902245,13.4260167 -7.74491582e-13,12.3327958 -7.74491582e-13,10.9889245 L-7.74491582e-13,10.9889245 L-7.74491582e-13,5.95715048 C-7.74491582e-13,4.61331405 1.03902245,3.52002339 2.31585867,3.52002339 L2.31585867,3.52002339 L2.64322963,3.52002339 L2.64322963,0.406216915 C2.64322963,0.181901186 2.81591391,-1.77635684e-15 3.02923369,-1.77635684e-15 L3.02923369,-1.77635684e-15 Z M11.5850274,11.1779412 L3.41520461,11.1779412 L3.41520461,16.1877057 L11.5850274,16.1877057 L11.5850274,11.1779412 Z M10.6843512,13.2766938 C10.8975053,13.2766938 11.0703553,13.4585252 11.0703553,13.6828758 C11.0703553,13.9071218 10.8975384,14.0890927 10.6843512,14.0890927 L10.6843512,14.0890927 L4.31571504,14.0890927 C4.10256099,14.0890927 3.92971098,13.9072264 3.92971098,13.6828758 C3.92971098,13.4585252 4.10256099,13.2766938 4.31571504,13.2766938 L4.31571504,13.2766938 Z M12.6841745,4.33245722 L2.31585867,4.33245722 C1.46453509,4.33245722 0.771941842,5.06128278 0.771941842,5.95718536 L0.771941842,5.95718536 L0.771941842,10.9889245 C0.771941842,11.884827 1.46453509,12.6136875 2.31585867,12.6136875 L2.31585867,12.6136875 L2.64322963,12.6136875 L2.64322963,11.1779412 L1.92276162,11.1779412 C1.70960757,11.1779412 1.53675756,10.9961098 1.53675756,10.7717243 C1.53675756,10.5474435 1.70960757,10.3655423 1.92276162,10.3655423 L1.92276162,10.3655423 L13.1917867,10.3655423 C13.4051065,10.3655423 13.5777576,10.5474435 13.5777576,10.7717243 C13.5777576,10.9960749 13.4051065,11.1779412 13.1917867,11.1779412 L13.1917867,11.1779412 L12.3570024,11.1779412 L12.3570024,12.6136875 L12.6841745,12.6136875 C13.5355312,12.6136875 14.2281244,11.8848968 14.2281244,10.9889245 L14.2281244,10.9889245 L14.2281244,5.95718536 C14.2281244,5.06131766 13.5354649,4.33245722 12.6841745,4.33245722 L12.6841745,4.33245722 Z M10.6843512,11.7701403 C10.8975053,11.7701403 11.0703553,11.9520415 11.0703553,12.1763224 C11.0703553,12.4007079 10.8975384,12.5825393 10.6843512,12.5825393 L10.6843512,12.5825393 L4.31571504,12.5825393 C4.10256099,12.5825393 3.92971098,12.4007079 3.92971098,12.1763224 C3.92971098,11.9520415 4.10256099,11.7701403 4.31571504,11.7701403 L4.31571504,11.7701403 Z M11.9709652,5.95219746 C12.2618106,5.95219746 12.4977351,6.20051089 12.4978014,6.50655136 C12.4978014,6.8126267 12.2618106,7.06090525 11.9709652,7.06090525 C11.6801529,7.06090525 11.4441952,6.81259182 11.4441952,6.50655136 C11.4441952,6.20051089 11.6802523,5.95219746 11.9709652,5.95219746 Z M11.5850274,0.812398949 L3.41520461,0.812398949 L3.41520461,3.52005827 L11.5850274,3.52005827 L11.5850274,0.812398949 Z" id="path-1"></path>
    </defs>
    <g id="Icons/16px/Printer" stroke="none" stroke-width="1" fill="none" fill-rule="evenodd">
        <mask id="mask-2" fill="white">
            <use xlink:href="#path-1"></use>
        </mask>
        <use id="Combined-Shape" stroke="#343635" stroke-width="0.5" fill="#2C2E2E" fill-rule="nonzero" xlink:href="#path-1"></use>
    </g>
</svg>