<?xml version="1.0" encoding="UTF-8"?>
<svg width="16px" height="16px" viewBox="0 0 16 16" version="1.1" xmlns="http://www.w3.org/2000/svg" xmlns:xlink="http://www.w3.org/1999/xlink">
    <title>Icons/16px/Question</title>
    <g id="Icons/16px/Question" stroke="none" stroke-width="1" fill="none" fill-rule="evenodd">
        <path d="M8,1 C4.13129688,1 1,4.13077734 1,8 C1,11.8687031 4.13077734,15 8,15 C11.8687031,15 15,11.8692227 15,8 C15,4.13129688 11.8692227,1 8,1 Z M8,13.90625 C4.73578516,13.90625 2.09375,11.2646523 2.09375,8 C2.09375,4.73578516 4.73534766,2.09375 8,2.09375 C11.2642148,2.09375 13.90625,4.73534766 13.90625,8 C13.90625,11.2642148 11.2646523,13.90625 8,13.90625 Z M10.1875,6.70117188 C10.1875,7.71860547 9.48930469,8.57602344 8.546875,8.81946484 L8.546875,9.70898438 C8.546875,10.0110234 8.30203906,10.2558594 8,10.2558594 C7.69796094,10.2558594 7.453125,10.0110234 7.453125,9.70898438 L7.453125,8.34179688 C7.453125,8.03975781 7.69796094,7.79492188 8,7.79492188 C8.60309375,7.79492188 9.09375,7.30426563 9.09375,6.70117188 C9.09375,6.09807813 8.60309375,5.60742188 8,5.60742188 C7.39690625,5.60742188 6.90625,6.09807813 6.90625,6.70117188 C6.90625,7.00321094 6.66141406,7.24804688 6.359375,7.24804688 C6.05733594,7.24804688 5.8125,7.00321094 5.8125,6.70117188 C5.8125,5.49498438 6.7938125,4.51367188 8,4.51367188 C9.2061875,4.51367188 10.1875,5.49498438 10.1875,6.70117188 Z M8.68359375,11.3496094 C8.68359375,11.7271445 8.37753516,12.0332031 8,12.0332031 C7.62246484,12.0332031 7.31640625,11.7271445 7.31640625,11.3496094 C7.31640625,10.9720742 7.62246484,10.6660156 8,10.6660156 C8.37753516,10.6660156 8.68359375,10.9720742 8.68359375,11.3496094 Z" id="Shape" fill="#2C2E2E" fill-rule="nonzero"></path>
    </g>
</svg>