<?xml version="1.0" encoding="UTF-8"?>
<svg width="16px" height="16px" viewBox="0 0 16 16" version="1.1" xmlns="http://www.w3.org/2000/svg" xmlns:xlink="http://www.w3.org/1999/xlink">
    <title>Icons/16px/Remove Round</title>
    <g id="Icons/16px/Remove-Round" stroke="none" stroke-width="1" fill="none" fill-rule="evenodd">
        <g id="c-remove" transform="translate(2.000000, 2.000000)" fill="#2C2E2E" fill-rule="nonzero">
            <path d="M6,0 C2.7,0 0,2.7 0,6 C0,9.3 2.7,12 6,12 C9.3,12 12,9.3 12,6 C12,2.7 9.3,0 6,0 Z M8.1,8.1 C7.81005051,8.38994949 7.33994949,8.38994949 7.05,8.1 L6,7.05 L6,7.05 L4.95,8.1 C4.66005051,8.38994949 4.18994949,8.38994949 3.9,8.1 C3.61005051,7.81005051 3.61005051,7.33994949 3.9,7.05 L4.95,6 L4.95,6 L3.9,4.95 C3.61005051,4.66005051 3.61005051,4.18994949 3.9,3.9 C4.18994949,3.61005051 4.66005051,3.61005051 4.95,3.9 L6,4.95 L6,4.95 L7.05,3.9 C7.33994949,3.61005051 7.81005051,3.61005051 8.1,3.9 C8.38994949,4.18994949 8.38994949,4.66005051 8.1,4.95 L7.05,6 L7.05,6 L8.1,7.05 C8.38994949,7.33994949 8.38994949,7.81005051 8.1,8.1 Z" id="Shape"></path>
        </g>
    </g>
</svg>