<?xml version="1.0" encoding="UTF-8"?>
<svg width="16px" height="16px" viewBox="0 0 16 16" version="1.1" xmlns="http://www.w3.org/2000/svg" xmlns:xlink="http://www.w3.org/1999/xlink">
    <title>Icons/16px/Search</title>
    <g id="Icons/16px/Search" stroke="none" stroke-width="1" fill="none" fill-rule="evenodd">
        <path d="M12.2768972,11.2615644 L14.7897177,13.7743849 C15.0700941,14.0547613 15.0700941,14.5093413 14.7897177,14.7897177 C14.5093413,15.0700941 14.0547613,15.0700941 13.7743849,14.7897177 L11.2615644,12.2768972 C10.9811879,11.9965208 10.9811879,11.5419408 11.2615644,11.2615644 C11.5419408,10.9811879 11.9965208,10.9811879 12.2768972,11.2615644 Z M6.74358974,1 C9.91568677,1 12.4871795,3.57149272 12.4871795,6.74358974 C12.4871795,9.91568677 9.91568677,12.4871795 6.74358974,12.4871795 C3.57149272,12.4871795 1,9.91568677 1,6.74358974 C1,3.57149272 3.57149272,1 6.74358974,1 Z M6.74358974,2.43589744 C4.36451698,2.43589744 2.43589744,4.36451698 2.43589744,6.74358974 C2.43589744,9.12266251 4.36451698,11.0512821 6.74358974,11.0512821 C9.12266251,11.0512821 11.0512821,9.12266251 11.0512821,6.74358974 C11.0512821,4.36451698 9.12266251,2.43589744 6.74358974,2.43589744 Z" id="Combined-Shape" fill="#2C2E2E" fill-rule="nonzero"></path>
    </g>
</svg>