<?xml version="1.0" encoding="UTF-8"?>
<svg width="16px" height="16px" viewBox="0 0 16 16" version="1.1" xmlns="http://www.w3.org/2000/svg" xmlns:xlink="http://www.w3.org/1999/xlink">
    <title>Icons/16px/Send</title>
    <g id="Icons/16px/Send" stroke="none" stroke-width="1" fill="none" fill-rule="evenodd">
        <g id="send-2" transform="translate(0.500000, 1.500000)" fill="#2C2E2E" fill-rule="nonzero">
            <path d="M13.743625,0.256375 C13.50475,0.018375 13.148625,-0.063 12.831,0.051625 L0.581,4.426625 C0.251125,4.543875 0.02275,4.8475 0.00175,5.196625 C-0.01925,5.546625 0.16975,5.87475 0.483875,6.03225 L4.496625,8.03775 L9.625,4.375 L5.961375,9.50425 L7.966875,13.517 C8.1165,13.813625 8.420125,14 8.75,14 C8.768375,14 8.785875,13.999125 8.803375,13.99825 C9.153375,13.97725 9.457,13.74975 9.575125,13.419 L13.950125,1.169 C14.063,0.851375 13.9825,0.49525 13.743625,0.256375 Z" id="Path"></path>
        </g>
    </g>
</svg>