<?xml version="1.0" encoding="UTF-8"?>
<svg width="16px" height="16px" viewBox="0 0 16 16" version="1.1" xmlns="http://www.w3.org/2000/svg" xmlns:xlink="http://www.w3.org/1999/xlink">
    <title>Icons/16px/Time</title>
    <g id="Icons/16px/Time" stroke="none" stroke-width="1" fill="none" fill-rule="evenodd">
        <g id="clock" transform="translate(2.000000, 2.000000)" fill="#2C2E2E" fill-rule="nonzero">
            <path d="M6,0 C2.7,0 0,2.7 0,6 C0,9.3 2.7,12 6,12 C9.3,12 12,9.3 12,6 C12,2.7 9.3,0 6,0 Z M8.25,6.75 L6.25,6.75 C5.69771525,6.75 5.25,6.30228475 5.25,5.75 L5.25,3.75 C5.25,3.33578644 5.58578644,3 6,3 C6.41421356,3 6.75,3.33578644 6.75,3.75 L6.75,5.25 L6.75,5.25 L8.25,5.25 C8.66421356,5.25 9,5.58578644 9,6 C9,6.41421356 8.66421356,6.75 8.25,6.75 Z" id="Shape"></path>
        </g>
    </g>
</svg>