<?xml version="1.0" encoding="UTF-8"?>
<svg width="16px" height="16px" viewBox="0 0 16 16" version="1.1" xmlns="http://www.w3.org/2000/svg" xmlns:xlink="http://www.w3.org/1999/xlink">
    <title>Icons/16px/Trash</title>
    <defs>
        <filter id="filter-1">
            <feColorMatrix in="SourceGraphic" type="matrix" values="0 0 0 0 0.172549 0 0 0 0 0.180392 0 0 0 0 0.180392 0 0 0 1.000000 0"></feColorMatrix>
        </filter>
    </defs>
    <g id="Icons/16px/Trash" stroke="none" stroke-width="1" fill="none" fill-rule="evenodd">
        <g filter="url(#filter-1)" id="bin">
            <g transform="translate(2.000000, 0.000000)">
                <path d="M8.70813819,5.79683841 C8.50117096,5.79683841 8.33343093,5.96457847 8.33343093,6.17154567 L8.33343093,13.2535129 C8.33343093,13.4603337 8.50117096,13.6282201 8.70813819,13.6282201 C8.91510539,13.6282201 9.08284545,13.4603337 9.08284545,13.2535129 L9.08284545,6.17154567 C9.08284545,5.96457847 8.91510539,5.79683841 8.70813819,5.79683841 Z" id="Path" stroke="#000000" stroke-width="0.5" fill="#000000" fill-rule="nonzero"></path>
                <path d="M4.28659252,5.79683841 C4.07962529,5.79683841 3.91188526,5.96457847 3.91188526,6.17154567 L3.91188526,13.2535129 C3.91188526,13.4603337 4.07962529,13.6282201 4.28659252,13.6282201 C4.49355972,13.6282201 4.66129978,13.4603337 4.66129978,13.2535129 L4.66129978,6.17154567 C4.66129978,5.96457847 4.49355972,5.79683841 4.28659252,5.79683841 Z" id="Path" stroke="#000000" stroke-width="0.5" fill="#000000" fill-rule="nonzero"></path>
                <path d="M1.06411009,4.76331968 L1.06411009,13.9953162 C1.06411009,14.5409836 1.26419788,15.053425 1.6137295,15.4211065 C1.96165104,15.7898126 2.44584311,15.9991218 2.95257611,16 L10.0421546,16 C10.549034,15.9991218 11.033226,15.7898126 11.3810012,15.4211065 C11.7305328,15.053425 11.9306206,14.5409836 11.9306206,13.9953162 L11.9306206,4.76331968 C12.6254391,4.57889345 13.0756733,3.90764051 12.9827283,3.19467211 C12.889637,2.48185012 12.2823478,1.94862411 11.5633782,1.94847775 L9.64490634,1.94847775 L9.64490634,1.48009368 C9.64710186,1.08621193 9.49136416,0.707991794 9.21252927,0.429742389 C8.93369439,0.151639344 8.55488877,-0.00322014052 8.16100703,-4.92334608e-05 L4.83372365,-4.92334608e-05 C4.43984191,-0.00322014052 4.06103629,0.151639344 3.78220141,0.429742389 C3.50336652,0.707991794 3.34762881,1.08621193 3.34982437,1.48009368 L3.34982437,1.94847775 L1.43135247,1.94847775 C0.712382913,1.94862411 0.105093696,2.48185012 0.0120023232,3.19467211 C-0.0809426136,3.90764051 0.369291578,4.57889345 1.06411009,4.76331968 Z M10.0421546,15.2505855 L2.95257611,15.2505855 C2.31191453,15.2505855 1.81352461,14.7002342 1.81352461,13.9953162 L1.81352461,4.79625293 L11.1812061,4.79625293 L11.1812061,13.9953162 C11.1812061,14.7002342 10.6828161,15.2505855 10.0421546,15.2505855 Z M4.09923889,1.48009368 C4.09675058,1.28498244 4.17344847,1.0971897 4.31191453,0.959455513 C4.45023419,0.82172133 4.63846602,0.746048 4.83372365,0.74941452 L8.16100703,0.74941452 C8.35626462,0.746048 8.54449649,0.82172133 8.68281615,0.959455513 C8.82128221,1.09704333 8.8979801,1.28498244 8.89549182,1.48009368 L8.89549182,1.94847775 L4.09923889,1.94847775 L4.09923889,1.48009368 Z M1.43135247,2.69789227 L11.5633782,2.69789227 C11.9358899,2.69789227 12.2378513,2.99985364 12.2378513,3.37236534 C12.2378513,3.74487704 11.9358899,4.04683841 11.5633782,4.04683841 L1.43135247,4.04683841 C1.05884073,4.04683841 0.7568794,3.74487704 0.7568794,3.37236534 C0.7568794,2.99985364 1.05884073,2.69789227 1.43135247,2.69789227 Z" id="Shape" stroke="#000000" stroke-width="0.5" fill="#000000" fill-rule="nonzero"></path>
                <path d="M6.49736536,5.79683841 C6.29039813,5.79683841 6.1226581,5.96457847 6.1226581,6.17154567 L6.1226581,13.2535129 C6.1226581,13.4603337 6.29039813,13.6282201 6.49736536,13.6282201 C6.70433255,13.6282201 6.87207262,13.4603337 6.87207262,13.2535129 L6.87207262,6.17154567 C6.87207262,5.96457847 6.70433255,5.79683841 6.49736536,5.79683841 Z" id="Path" stroke="#000000" stroke-width="0.5" fill="#000000" fill-rule="nonzero"></path>
            </g>
        </g>
    </g>
</svg>