<?xml version="1.0" encoding="UTF-8"?>
<svg width="16px" height="16px" viewBox="0 0 16 16" version="1.1" xmlns="http://www.w3.org/2000/svg" xmlns:xlink="http://www.w3.org/1999/xlink">
    <title>Icons/16px/Upload</title>
    <g id="Icons/16px/Upload" stroke="none" stroke-width="1" fill="none" fill-rule="evenodd">
        <g id="pen-01" transform="translate(3.000000, 3.000000)" fill="#2C2E2E" fill-rule="nonzero">
            <path d="M4.35539322,2.89460678 C4.74591751,2.50408249 5.37908249,2.50408249 5.76960678,2.89460678 L5.76960678,2.89460678 L7.10539322,4.23039322 C7.49591751,4.62091751 7.49591751,5.25408249 7.10539322,5.64460678 L7.10539322,5.64460678 L2.9375,9.8125 C2.8125,9.9375 2.6875,10 2.5,10 L2.5,10 L0.625,10 C0.25,10 0,9.75 0,9.375 L0,9.375 L0,7.5 C0,7.3125 0.0625,7.1875 0.1875,7.0625 L0.1875,7.0625 Z M6.87040725,0.471012864 C7.26569708,0.114459399 7.87102414,0.130082948 8.24739456,0.506553039 L8.24739456,0.506553039 L9.51541614,1.77491039 C9.89854671,2.15814241 9.90671348,2.77681093 9.5338324,3.17002273 L9.5338324,3.17002273 L9.39410235,3.31737133 L9.39410235,3.31737133 L9.37559249,3.33637893 C8.9850682,3.72690322 8.35190322,3.72690322 7.96137893,3.33637893 L7.96137893,3.33637893 L6.68197613,2.05697613 C6.66984237,2.04484237 6.65802293,2.0323983 6.64652957,2.01965628 C6.27661646,1.6095554 6.30919509,0.977229116 6.71929598,0.607316007 L6.71929598,0.607316007 Z" id="Combined-Shape"></path>
        </g>
    </g>
</svg>