<?xml version="1.0" encoding="UTF-8"?>
<svg width="98px" height="98px" viewBox="0 0 98 98" version="1.1" xmlns="http://www.w3.org/2000/svg" xmlns:xlink="http://www.w3.org/1999/xlink">
    <title>Group 3</title>
    <g id="UI-Style-Guide" stroke="none" stroke-width="1" fill="none" fill-rule="evenodd">
        <g id="Artboard" transform="translate(-1147.000000, -1071.000000)">
            <g id="Group-3" transform="translate(1147.000000, 1071.000000)">
                <path d="M62.1122603,50.0526185 C61.0262301,50.8156645 59.7358445,51.1160381 58.243519,50.9600376 C56.7531261,50.8020992 55.6405248,50.1882711 54.9119956,49.1180688 C54.1791184,48.0493198 53.8902189,46.8066449 54.0370842,45.3910128 C54.1878144,43.9744119 54.7699614,42.8572156 55.778211,42.0370017 C56.7908086,41.2177567 58.0169407,40.8820164 59.4624045,41.0365635 C60.9064189,41.1896572 62.0547703,41.8320693 62.9074587,42.9633153 C63.7625626,44.0940768 64.1157157,45.3687271 63.9669179,46.7843591 C63.8181202,48.1995067 63.1963582,49.2900569 62.1122603,50.0526185 Z M70.2172926,40.7596602 C69.3865445,38.9138359 68.1333406,37.4080858 66.4674489,36.242922 C64.7971616,35.0772461 62.7630252,34.3612466 60.3606442,34.0954356 C56.88967,33.7108035 53.9012233,34.4887744 51.3933504,36.4298604 C48.8879195,38.3688978 47.4510817,41.1422437 47.0872326,44.7483615 C46.7238719,48.3534551 47.4960134,51.3690526 49.3973083,53.7987391 C51.2990915,56.2289379 53.8406631,57.6179155 57.0200696,57.9713059 C59.4219622,58.2371168 61.7300844,57.7546622 63.9556689,56.520869 C63.4365124,59.0453052 62.5295757,60.9802453 61.229975,62.3318353 C59.9298859,63.6829131 58.2254114,64.243216 56.1175284,64.0106954 C55.2438021,63.9138972 54.3368654,63.5656285 53.4006255,62.9863756 L48.9685035,68.2744266 C49.6219668,68.7169327 50.4683434,69.178901 51.5100752,69.6634042 C52.9224935,70.3179446 54.4223334,70.7348428 56.0139901,70.9115379 C59.8087656,71.3304847 63.1762015,70.261607 66.126554,67.6997832 C67.5677872,66.4142618 68.7936413,64.5822659 69.8041163,62.199698 C70.8145913,59.8171301 71.4836829,56.9941048 71.8113914,53.7285732 C72.3232221,48.6627996 71.7938094,44.3391458 70.2172926,40.7596602 L70.2172926,40.7596602 Z" id="Fill-28" fill="#333635"></path>
                <path d="M35.1124377,50.0526185 C34.0261523,50.8156645 32.7378796,51.1160381 31.2452036,50.9600376 C29.7520444,50.8020992 28.6415979,50.1882711 27.9104814,49.1180688 C27.1798482,48.0493198 26.8889479,46.8066449 27.0377806,45.3910128 C27.1866133,43.9744119 27.766481,42.8572156 28.7793165,42.0370017 C29.7878029,41.2177567 31.0166391,40.8820164 32.4624425,41.0365635 C33.9063129,41.1896572 35.052518,41.8320693 35.908306,42.9633153 C36.7631276,44.0940768 37.1144307,45.3687271 36.9675309,46.7843591 C36.8167653,48.1995067 36.1987231,49.2900569 35.1124377,50.0526185 Z M43.1463947,40.7596602 C42.2804551,38.9138359 40.9802759,37.4080858 39.2453494,36.242922 C37.5083913,35.0772461 35.3905213,34.3612466 32.8968184,34.0954356 C29.2872976,33.7108035 26.1775332,34.4887744 23.5715882,36.4298604 C20.9615801,38.3688978 19.4694214,41.1422437 19.0910489,44.7483615 C18.7126765,48.3534551 19.5136071,51.3690526 21.4938409,53.7987391 C23.4735668,56.2289379 26.1140479,57.6179155 29.4229022,57.9713059 C31.9160973,58.2371168 34.3209208,57.7546622 36.632294,56.520869 C36.0959701,59.0453052 35.1523245,60.9802453 33.7983098,62.3318353 C32.4437872,63.6829131 30.6743246,64.243216 28.4792566,64.0106954 C27.5731942,63.9138972 26.6305643,63.5656285 25.6564457,62.9863756 L21.0504595,68.2744266 C21.7274669,68.7169327 22.6096587,69.178901 23.6929721,69.6634042 C25.1592288,70.3179446 26.7194438,70.7348428 28.3720934,70.9115379 C32.3178323,71.3304847 35.8247609,70.261607 38.888308,67.6997832 C40.3870692,66.4142618 41.6618542,64.5822659 42.7126631,62.199698 C43.7655034,59.8171301 44.463334,56.9941048 44.804631,53.7285732 C45.3368918,48.6627996 44.7807605,44.3391458 43.1463947,40.7596602 L43.1463947,40.7596602 Z" id="Fill-27" fill="#333635"></path>
                <path d="M81,52.0007558 C81,71.8809805 65.1065022,88 45.5002484,88 C25.8944915,88 10,71.8809805 10,52.0007558 C10,32.1165002 25.8944915,16 45.5002484,16 C65.1065022,16 81,32.1165002 81,52.0007558 Z M81.9137682,21.0377195 L90.573928,29.704819 L98,22.2707232 C98,22.2707232 93.075674,9.98477521 75.7217839,0 L68.2957119,7.42658051 L76.9658928,16.0856637 L76.9658928,16.0901729 L75.0884559,17.9709921 C67.1252576,11.1486386 56.8086242,7.00572591 45.4964032,7.00572591 C20.3687119,7.00622693 0,27.3730841 0,52.5061196 C0,77.6296357 20.3687119,98 45.4964032,98 C70.6311091,98 91.0003221,77.6296357 91.0003221,52.5061196 C91.0003221,41.1901412 86.856633,30.8746945 80.0388365,22.9195407 L81.9137682,21.0377195 L81.9137682,21.0377195 Z" id="Fill-30" fill="#7DBC44"></path>
            </g>
        </g>
    </g>
</svg>