<?xml version="1.0" encoding="UTF-8"?>
<svg width="196px" height="196px" viewBox="0 0 196 196" version="1.1" xmlns="http://www.w3.org/2000/svg" xmlns:xlink="http://www.w3.org/1999/xlink">
    <title>Group 3</title>
    <g id="UI-Style-Guide" stroke="none" stroke-width="1" fill="none" fill-rule="evenodd">
        <g id="Artboard" transform="translate(-1147.000000, -1071.000000)">
            <g id="Group-3" transform="translate(1147.000000, 1071.000000)">
                <path d="M124.536,100.636 C122.288,102.211 119.617,102.831 116.528,102.509 C113.443,102.183 111.14,100.916 109.632,98.707 C108.115,96.501 107.517,93.936 107.821,91.014 C108.133,88.09 109.338,85.784 111.425,84.091 C113.521,82.4 116.059,81.707 119.051,82.026 C122.04,82.342 124.417,83.668 126.182,86.003 C127.952,88.337 128.683,90.968 128.375,93.89 C128.067,96.811 126.78,99.062 124.536,100.636 Z M140.608,81.987 C138.907,78.383 136.341,75.443 132.93,73.168 C129.51,70.892 125.345,69.494 120.426,68.975 C113.319,68.224 107.2,69.743 102.065,73.533 C96.935,77.319 93.993,82.734 93.248,89.775 C92.504,96.814 94.085,102.702 97.978,107.446 C101.872,112.191 107.076,114.903 113.586,115.593 C118.504,116.112 123.23,115.17 127.787,112.761 C126.724,117.69 124.867,121.468 122.206,124.107 C119.544,126.745 116.054,127.839 111.738,127.385 C109.949,127.196 108.092,126.516 106.175,125.385 L97.1,135.71 C98.438,136.574 100.171,137.476 102.304,138.422 C105.196,139.7 108.267,140.514 111.526,140.859 C119.296,141.677 126.191,139.59 132.232,134.588 C135.183,132.078 137.693,128.501 139.762,123.849 C141.831,119.197 143.201,113.685 143.872,107.309 C144.92,97.418 143.836,88.976 140.608,81.987 L140.608,81.987 Z" id="Fill-28" fill="#333635"></path>
                <path d="M70.726,100.636 C68.478,102.211 65.812,102.831 62.723,102.509 C59.633,102.183 57.335,100.916 55.822,98.707 C54.31,96.501 53.708,93.936 54.016,91.014 C54.324,88.09 55.524,85.784 57.62,84.091 C59.707,82.4 62.25,81.707 65.242,82.026 C68.23,82.342 70.602,83.668 72.373,86.003 C74.142,88.337 74.869,90.968 74.565,93.89 C74.253,96.811 72.974,99.062 70.726,100.636 Z M86.802,81.987 C85.097,78.383 82.537,75.443 79.121,73.168 C75.701,70.892 71.531,69.494 66.621,68.975 C59.514,68.224 53.391,69.743 48.26,73.533 C43.121,77.319 40.183,82.734 39.438,89.775 C38.693,96.814 40.27,102.702 44.169,107.446 C48.067,112.191 53.266,114.903 59.781,115.593 C64.69,116.112 69.425,115.17 73.976,112.761 C72.92,117.69 71.062,121.468 68.396,124.107 C65.729,126.745 62.245,127.839 57.923,127.385 C56.139,127.196 54.283,126.516 52.365,125.385 L43.296,135.71 C44.629,136.574 46.366,137.476 48.499,138.422 C51.386,139.7 54.458,140.514 57.712,140.859 C65.481,141.677 72.386,139.59 78.418,134.588 C81.369,132.078 83.879,128.501 85.948,123.849 C88.021,119.197 89.395,113.685 90.067,107.309 C91.115,97.418 90.02,88.976 86.802,81.987 L86.802,81.987 Z" id="Fill-27" fill="#333635"></path>
                <path d="M162.15,103.466 C162.15,142.923 130.164,174.915 90.706,174.915 C51.249,174.915 19.261,142.923 19.261,103.466 C19.261,64.001 51.249,32.014 90.706,32.014 C130.164,32.014 162.15,64.001 162.15,103.466 Z M163.484,41.99 L180.768,59.289 L195.589,44.451 C195.589,44.451 185.761,19.929 151.126,-1.42108547e-14 L136.305,14.823 L153.609,32.106 L153.609,32.115 L149.862,35.869 C133.969,22.252 113.379,13.983 90.802,13.983 C40.652,13.984 1.98951966e-13,54.635 1.98951966e-13,104.799 C1.98951966e-13,154.944 40.652,195.602 90.802,195.602 C140.966,195.602 181.619,154.944 181.619,104.799 C181.619,82.213 173.349,61.624 159.742,45.746 L163.484,41.99 L163.484,41.99 Z" id="Fill-30" fill="#7DBC44"></path>
            </g>
        </g>
    </g>
</svg>