<?xml version="1.0" encoding="UTF-8"?>
<svg width="48px" height="48px" viewBox="0 0 48 48" version="1.1" xmlns="http://www.w3.org/2000/svg" xmlns:xlink="http://www.w3.org/1999/xlink">
    <title>Button/Floating/Secondary</title>
    <g id="UI-Style-Guide" stroke="none" stroke-width="1" fill="none" fill-rule="evenodd">
        <g id="03.-Components" transform="translate(-1225.000000, -517.000000)" fill-rule="nonzero">
            <g id="Button" transform="translate(120.000000, 294.000000)">
                <g id="Other" transform="translate(1105.000000, 79.000000)">
                    <g id="Button/Floating/Secondary" transform="translate(0.000000, 144.000000)">
                        <path d="M20.0736306,-7.4831381e-16 L27.9263694,7.4831381e-16 C34.5335781,-4.65410752e-16 37.2073582,0.742604889 39.8147656,2.13706163 C42.422173,3.53151837 44.4684816,5.57782696 45.8629384,8.18523437 C47.2573951,10.7926418 48,13.4664219 48,20.0736306 L48,27.9263694 C48,34.5335781 47.2573951,37.2073582 45.8629384,39.8147656 C44.4684816,42.422173 42.422173,44.4684816 39.8147656,45.8629384 C37.2073582,47.2573951 34.5335781,48 27.9263694,48 L20.0736306,48 C13.4664219,48 10.7926418,47.2573951 8.18523437,45.8629384 C5.57782696,44.4684816 3.53151837,42.422173 2.13706163,39.8147656 C0.742604889,37.2073582 3.10273835e-16,34.5335781 -4.98875873e-16,27.9263694 L4.98875873e-16,20.0736306 C-3.10273835e-16,13.4664219 0.742604889,10.7926418 2.13706163,8.18523437 C3.53151837,5.57782696 5.57782696,3.53151837 8.18523437,2.13706163 C10.7926418,0.742604889 13.4664219,4.65410752e-16 20.0736306,-7.4831381e-16 Z" id="Frame" fill="#DFEFD3"></path>
                        <g id="Group" transform="translate(12.000000, 12.000000)" fill="#7EBC44">
                            <g id="gps" transform="translate(3.000000, 5.000000)">
                                <path d="M15.2098765,4.04938272 L1.38271605,0.0987654321 C0.592592593,-0.0987654321 -0.0987654321,0.592592593 0.0987654321,1.38271605 L4.04938272,15.2098765 C4.34567901,16.0987654 5.5308642,16.1975309 5.92592593,15.308642 L8.69135802,8.79012346 L15.2098765,6.02469136 C16.1975309,5.5308642 16.0987654,4.34567901 15.2098765,4.04938272 Z" id="Path" transform="translate(7.989369, 7.996325) scale(-1, 1) translate(-7.989369, -7.996325) "></path>
                            </g>
                        </g>
                    </g>
                </g>
            </g>
        </g>
    </g>
</svg>