<?xml version="1.0" encoding="UTF-8"?>
<svg width="220px" height="48px" viewBox="0 0 220 48" version="1.1" xmlns="http://www.w3.org/2000/svg" xmlns:xlink="http://www.w3.org/1999/xlink">
    <title>Button/L/Left Icon/Disabled</title>
    <g id="UI-Style-Guide" stroke="none" stroke-width="1" fill="none" fill-rule="evenodd">
        <g id="03.-Components" transform="translate(-388.000000, -693.000000)">
            <g id="Button" transform="translate(120.000000, 294.000000)">
                <g id="L-Buttons" transform="translate(0.000000, 79.000000)">
                    <g id="Button/L/Left-Icon/Disabled" transform="translate(268.000000, 320.000000)">
                        <rect id="Frame" fill="#E5E5E5" fill-rule="nonzero" x="0" y="0" width="220" height="48" rx="24"></rect>
                        <g id="Inside" transform="translate(66.000000, 13.000000)">
                            <text id="Text" font-family="Barlow-SemiBold, Barlow" font-size="17" font-weight="500" line-spacing="22" fill="#B8B6B6">
                                <tspan x="24" y="17">Disabled</tspan>
                            </text>
                            <g id="Group" transform="translate(0.000000, 5.000000)" fill="#B4B4B4" fill-rule="nonzero">
                                <g id="c-add" transform="translate(1.000000, 1.000000)">
                                    <path d="M7,0 C3.15,0 0,3.15 0,7 C0,10.85 3.15,14 7,14 C10.85,14 14,10.85 14,7 C14,3.15 10.85,0 7,0 Z M9.625,7.875 L7.875,7.875 L7.875,7.875 L7.875,9.625 C7.875,10.1082492 7.48324916,10.5 7,10.5 C6.51675084,10.5 6.125,10.1082492 6.125,9.625 L6.125,7.875 L6.125,7.875 L4.375,7.875 C3.89175084,7.875 3.5,7.48324916 3.5,7 C3.5,6.51675084 3.89175084,6.125 4.375,6.125 L6.125,6.125 L6.125,6.125 L6.125,4.375 C6.125,3.89175084 6.51675084,3.5 7,3.5 C7.48324916,3.5 7.875,3.89175084 7.875,4.375 L7.875,6.125 L7.875,6.125 L9.625,6.125 C10.1082492,6.125 10.5,6.51675084 10.5,7 C10.5,7.48324916 10.1082492,7.875 9.625,7.875 Z" id="Shape"></path>
                                </g>
                            </g>
                        </g>
                    </g>
                </g>
            </g>
        </g>
    </g>
</svg>