<?xml version="1.0" encoding="UTF-8"?>
<svg width="180px" height="40px" viewBox="0 0 180 40" version="1.1" xmlns="http://www.w3.org/2000/svg" xmlns:xlink="http://www.w3.org/1999/xlink">
    <title>Button/Loading/Small</title>
    <g id="UI-Style-Guide" stroke="none" stroke-width="1" fill="none" fill-rule="evenodd">
        <g id="03.-Components" transform="translate(-1380.000000, -517.000000)" fill-rule="nonzero">
            <g id="Button" transform="translate(120.000000, 294.000000)">
                <g id="Other" transform="translate(1105.000000, 79.000000)">
                    <g id="Button/Loading/Small" transform="translate(155.000000, 144.000000)">
                        <rect id="Frame" fill="#7EBC44" x="0" y="0" width="180" height="40" rx="6"></rect>
                        <g id="Group" transform="translate(82.000000, 12.000000)" fill="#FFFFFF">
                            <g id="dots-05" transform="translate(0.000000, 5.000000)">
                                <path d="M1.6,2.37792857 C2.4836556,2.37792857 3.2,3.14544043 3.2,4.09221429 C3.2,5.03898814 2.4836556,5.8065 1.6,5.8065 C0.7163444,5.8065 -4.6629367e-15,5.03898814 -4.6629367e-15,4.09221429 C-4.6629367e-15,3.14544043 0.7163444,2.37792857 1.6,2.37792857 Z M8,1.23507143 C8.8836556,1.23507143 9.6,2.00258329 9.6,2.94935714 C9.6,3.896131 8.8836556,4.66364286 8,4.66364286 C7.1163444,4.66364286 6.4,3.896131 6.4,2.94935714 C6.4,2.00258329 7.1163444,1.23507143 8,1.23507143 Z M14.4,0.0922142857 C15.2836556,0.0922142857 16,0.859726143 16,1.8065 C16,2.75327386 15.2836556,3.52078571 14.4,3.52078571 C13.5163444,3.52078571 12.8,2.75327386 12.8,1.8065 C12.8,0.859726143 13.5163444,0.0922142857 14.4,0.0922142857 Z" id="Combined-Shape"></path>
                            </g>
                        </g>
                    </g>
                </g>
            </g>
        </g>
    </g>
</svg>