<?xml version="1.0" encoding="UTF-8"?>
<svg width="28px" height="24px" viewBox="0 0 28 24" version="1.1" xmlns="http://www.w3.org/2000/svg" xmlns:xlink="http://www.w3.org/1999/xlink">
    <title>Icons/Nav/Alianzas - Active</title>
    <g id="UI-Style-Guide" stroke="none" stroke-width="1" fill="none" fill-rule="evenodd">
        <g id="04.-Iconography-&amp;-Illustration" transform="translate(-406.000000, -429.000000)" fill="#7DBC44" fill-rule="nonzero" stroke="#7DBC44" stroke-width="0.5">
            <g id="Tab-Bar" transform="translate(118.000000, 294.000000)">
                <g id="Group" transform="translate(289.000000, 135.000000)">
                    <g id="respect" transform="translate(0.000000, 1.000000)">
                        <path d="M23.3230071,1.85685679 C23.0864564,1.66351999 22.8624553,1.51570476 22.6123774,1.65943085 C22.3621953,1.80315693 22.1766693,2.18428512 22.4170154,2.37737687 C26.8798036,5.96273726 25.8121133,10.865113 23.5949193,13.1050814 L23.199766,13.5043029 C23.1042997,13.2512292 22.9564103,13.0138443 22.7548994,12.8103113 L17.4002414,7.40057724 C17.7504234,7.22652653 18.073977,6.99430097 18.3580308,6.70732262 L19.3850229,5.66970452 C19.5885141,5.46411831 19.5885141,5.13070537 19.3850229,4.92511916 C19.1814796,4.71953295 18.8515686,4.71953295 18.6479732,4.92511916 L17.6209811,5.96273726 C17.1384908,6.45014243 16.4970636,6.71858906 15.8147819,6.71858906 L13.7617879,6.71858906 C13.623591,6.71858906 13.4910742,6.77407891 13.393263,6.87279188 L11.8216128,8.46062293 C11.3549119,8.93218137 10.5955068,8.93218137 10.1288059,8.46062293 C9.66205293,7.98911713 9.66205293,7.2218936 10.1288059,6.7503878 L13.7169208,3.12538428 C15.909675,0.910001974 18.3580308,0.275327819 22.6123774,2.58033074 C22.8665682,2.71805121 23.1813189,2.62960825 23.3209227,2.37527099 C23.4605265,2.12098638 23.2116809,1.72280265 22.9599876,1.58176155 C21.4660862,0.744728207 19.2929959,-0.152307533 17.5906528,0.0767592062 C15.9975332,0.291084809 14.5393274,0.965018003 13.3440186,2.0343822 C11.8755992,0.719209544 10.0062422,0 8.0270886,0 C5.88295339,0 3.86721825,0.843561564 2.35106567,2.37527099 C0.834913098,3.90698042 0,5.94362643 0,8.10978387 C0,10.2759939 0.834965208,12.312482 2.35106567,13.8442441 L2.54746984,14.0426703 C2.58165427,14.0771541 2.61959065,14.1053728 2.65966356,14.1282742 C2.69452543,14.5837753 2.88342569,15.0293789 3.22751077,15.3769538 C3.61047023,15.7638034 4.11323153,15.9571228 4.61614916,15.9571228 C4.64225648,15.9571228 4.66841591,15.9562805 4.69452323,15.9552276 C4.69348102,15.9818669 4.69259514,16.0085062 4.69259514,16.0353035 C4.69259514,16.5652474 4.89686798,17.0634978 5.26778992,17.4382386 C5.65074938,17.8250881 6.15351068,18.0184603 6.65642831,18.0184076 C6.68253563,18.0184076 6.70869506,18.0175653 6.73480238,18.0165123 C6.73376017,18.0431517 6.73287429,18.069791 6.73287429,18.0965883 C6.73287429,18.6265322 6.93714712,19.1247826 7.30812118,19.4995234 C7.69102852,19.8863203 8.19389405,20.0796924 8.69675957,20.0796924 C8.72317955,20.0796924 8.74959953,20.07885 8.77601951,20.0777971 C8.75486268,20.612216 8.94543048,21.1537422 9.34840033,21.5609134 C9.71937439,21.9356542 10.2125474,22.1420301 10.7370387,22.1420301 C11.2616343,22.1420301 11.7548073,21.9356542 12.1256771,21.5609134 L12.8540244,20.8250148 L13.837817,21.8188307 C14.2087389,22.1936241 14.7019119,22.4 15.2264553,22.4 C15.7509988,22.4 16.2441718,22.1936241 16.6150937,21.8188833 C17.0229099,21.4068685 17.2134255,20.8571821 17.1868492,20.3164982 C17.2195746,20.3181303 17.2524041,20.3190779 17.2851816,20.3190779 C17.7880992,20.3190779 18.291069,20.1257058 18.6739242,19.7388562 C19.0766856,19.3319482 19.2672534,18.7908432 19.246305,18.2566876 C19.2726729,18.2577405 19.2990407,18.2586355 19.3255649,18.2586355 C19.8501084,18.2586355 20.3432814,18.0522596 20.7142033,17.6775188 C21.1169647,17.2706108 21.3075325,16.7295058 21.2865842,16.1953501 C21.312952,16.1964031 21.3393199,16.1972981 21.3658441,16.1972981 C21.8903876,16.1972981 22.3835605,15.9909222 22.7544825,15.6161814 C22.9428616,15.4258628 23.0847062,15.2060093 23.1803809,14.971362 C23.2310844,14.9464073 23.2787654,14.9131871 23.3209227,14.8706484 L24.3315521,13.8496141 C26.8798036,11.2756536 28.1660783,5.81517834 23.3230071,1.85685679 Z M4.61620127,14.9050268 C4.37003166,14.9050268 4.1386093,14.8082092 3.9645084,14.6323158 C3.79045961,14.4564751 3.69457644,14.2226701 3.69457644,13.9739661 C3.69457644,13.7253147 3.7904075,13.4914571 3.9645084,13.3156164 L4.86257932,12.4082994 C5.03662811,12.2324061 5.26810259,12.1355884 5.51427219,12.1355884 C5.76038969,12.1355884 5.99186416,12.2324061 6.16591296,12.4082994 C6.52526639,12.7713526 6.52526639,13.3619983 6.16591296,13.7249988 L5.26784203,14.6323685 C5.09379324,14.8081565 4.86242299,14.9050268 4.61620127,14.9050268 Z M6.00494388,16.6937059 C5.83084298,16.5178652 5.73501192,16.2840076 5.73501192,16.0353562 C5.73501192,15.7866521 5.83084298,15.5528472 6.00494388,15.3770065 L6.90306691,14.4696368 C7.0771157,14.2937435 7.30853806,14.1968731 7.55470767,14.1968731 C7.80082517,14.1968731 8.03229964,14.2936908 8.20634844,14.4695842 C8.56570187,14.8326373 8.56570187,15.4232831 8.20634844,15.7862836 L7.30827751,16.6936532 C6.94887197,17.0566537 6.36408887,17.0566537 6.00494388,16.6937059 Z M8.04522303,18.7549906 C7.87112212,18.5791499 7.77529107,18.3452923 7.77529107,18.0966409 C7.77529107,17.8479369 7.87112212,17.6141319 8.04522303,17.4382912 L8.94334606,16.5309216 C9.11739485,16.3550283 9.34881721,16.2581579 9.59498682,16.2581579 C9.84115643,16.2581579 10.0725788,16.3549756 10.2466276,16.530869 C10.605981,16.8939747 10.605981,17.4846205 10.2466276,17.847621 L9.34850455,18.7549906 C8.98920323,19.1180438 8.40457646,19.1180438 8.04522303,18.7549906 Z M12.2869588,19.9090111 L11.3888358,20.8164334 C11.214787,20.9922741 10.9833647,21.0891444 10.737195,21.0891444 C10.4910775,21.0891444 10.2596031,20.9923267 10.0855543,20.8164334 C9.72620085,20.4533276 9.72620085,19.8626818 10.0855543,19.4996813 L10.9836773,18.5923117 C11.1577261,18.4164183 11.3891485,18.319548 11.6353181,18.319548 C11.8814356,18.319548 12.1129101,18.4163657 12.2869588,18.592259 C12.4610597,18.7680997 12.5568908,19.0019573 12.5568908,19.2506087 C12.5569429,19.4994181 12.4610597,19.7331704 12.2869588,19.9090111 Z M22.0178496,14.871596 C21.8438008,15.0474894 21.6123264,15.1443071 21.3662089,15.1443071 C21.1200393,15.1443071 20.8886169,15.0474894 20.7145681,14.871596 L18.5453678,12.6800628 L16.5049844,10.6186727 C16.3014411,10.4130865 15.9715301,10.4130865 15.7679347,10.6186727 C15.5644435,10.8242589 15.5644435,11.1576719 15.7679347,11.3632581 L19.9775184,15.6160761 C20.3368718,15.9791819 20.3368718,16.5698277 19.9775184,16.9328282 C19.8034696,17.1087215 19.5719951,17.2055392 19.3258776,17.2055392 C19.079708,17.2055392 18.8482856,17.1087215 18.6742368,16.9328282 L14.4646532,12.6799575 C14.2611099,12.4744239 13.9311988,12.4744239 13.7276034,12.6799575 C13.5241122,12.8855437 13.5241122,13.2189567 13.7276034,13.4245955 L15.7675178,15.4854591 L17.9372392,17.6774662 C18.2965927,18.040572 18.2965927,18.6312704 17.9372913,18.9942709 C17.5778858,19.357324 16.9931548,19.357324 16.6339577,18.9942709 L12.5449466,14.6947275 C12.3414033,14.489194 12.0114922,14.489194 11.8078968,14.6947275 C11.6044056,14.9003138 11.6044056,15.2337267 11.8078968,15.4393655 L15.8784088,19.7574406 C16.2377622,20.1205464 16.2377622,20.7111922 15.8784088,21.0741927 C15.70436,21.250086 15.4728855,21.3469037 15.226768,21.3469037 C14.9805984,21.3469037 14.749176,21.250086 14.5751272,21.0741927 L13.4705949,19.9583412 C13.5547532,19.7352763 13.5992555,19.4964172 13.5992555,19.2505561 C13.5992555,18.7206122 13.3949826,18.2223618 13.0240607,17.847621 C12.6530866,17.4728803 12.1599136,17.2665043 11.6354223,17.2665043 C11.6088981,17.2665043 11.5825302,17.2673993 11.5561624,17.2684523 C11.5770586,16.7342966 11.386543,16.1931916 10.9837815,15.7862836 C10.6128075,15.4115428 10.1196345,15.2051669 9.59514315,15.2051669 C9.56861895,15.2051669 9.54225108,15.2060619 9.51588321,15.2071149 C9.5368316,14.6729592 9.3462638,14.1318542 8.94350239,13.7249462 C8.57252833,13.3502054 8.07935535,13.1438295 7.55486401,13.1438295 C7.5283398,13.1438295 7.50197193,13.1447245 7.47560406,13.1457774 C7.49655245,12.6116218 7.30598465,12.0705168 6.90322324,11.6636088 C6.13751278,10.8900149 4.8915006,10.8900676 4.12579014,11.6636088 L3.22771922,12.5709257 C3.11443117,12.6853801 3.01839167,12.8106272 2.93855851,12.9431921 C1.71443271,11.6295988 1.042521,9.92189078 1.042521,8.10967857 C1.042521,6.22476097 1.76904443,4.45261307 3.08837596,3.1198037 C4.40760327,1.78699433 6.16174412,1.05293836 8.02740126,1.05293836 C9.72286579,1.05293836 11.3260949,1.65922026 12.5945666,2.77017552 L9.39201675,6.00569715 C8.96908861,6.43303218 8.73615504,7.00114507 8.73615504,7.60542639 C8.73615504,8.20976036 8.96908861,8.77787325 9.39201675,9.20520828 C9.82859782,9.64623151 10.402073,9.86676945 10.975496,9.86676945 C11.548919,9.86676945 12.1223941,9.64628416 12.5589752,9.20520828 L13.9780461,7.77152742 L15.8150946,7.77152742 C15.966788,7.77152742 16.1168139,7.76105068 16.265016,7.74246632 L22.0181623,13.5547387 C22.377151,13.9179498 22.377151,14.5086482 22.0178496,14.871596 Z" id="Shape"></path>
                    </g>
                </g>
            </g>
        </g>
    </g>
</svg>