<?xml version="1.0" encoding="UTF-8"?>
<svg width="28px" height="28px" viewBox="0 0 28 28" version="1.1" xmlns="http://www.w3.org/2000/svg" xmlns:xlink="http://www.w3.org/1999/xlink">
    <title>Icons/Nav/Explore - Active Copy</title>
    <g id="UI-Style-Guide" stroke="none" stroke-width="1" fill="none" fill-rule="evenodd">
        <g id="04.-Iconography-&amp;-Illustration" transform="translate(-118.000000, -427.000000)" fill="#7DBC44" fill-rule="nonzero" stroke="#7DBC44">
            <g id="Tab-Bar" transform="translate(118.000000, 294.000000)">
                <g id="Group" transform="translate(0.000000, 133.000000)">
                    <g id="Icons-/-box" transform="translate(1.000000, 1.000000)">
                        <g id="shipping-and-delivery" transform="translate(0.000000, -0.000000)">
                            <path d="M0,21.6 L0,4 C-2.705415e-16,1.790861 1.790861,4.55153163e-13 4,4.54747351e-13 L21.4244118,4.54747351e-13 C23.6208729,4.52393018e-13 25.4064387,1.77112059 25.4242799,3.96750918 L25.5672442,21.5675092 C25.5851884,23.7765753 23.8089331,25.5819239 21.599867,25.599868 C21.5890369,25.599956 21.5782066,25.6 21.5673761,25.6 L4,25.6 C1.790861,25.6 2.705415e-16,23.809139 0,21.6 Z M1.06666667,4.06666667 L1.06666667,21.5333333 C1.06666667,23.1901876 2.40981242,24.5333333 4.06666667,24.5333333 L21.5333333,24.5333333 C23.1901876,24.5333333 24.5333333,23.1901876 24.5333333,21.5333333 L24.5333333,4.06666667 C24.5333333,2.40981242 23.1901876,1.06666667 21.5333333,1.06666667 L4.06666667,1.06666667 C2.40981242,1.06666667 1.06666667,2.40981242 1.06666667,4.06666667 Z" id="Shape"></path>
                            <path d="M13.0965333,9.90506667 C12.9173333,9.7856 12.6848,9.7856 12.5045333,9.90506667 L8.89111528,11.5989281 C8.39104793,11.8333446 7.79563113,11.617992 7.56121464,11.1179247 C7.49894575,10.98509 7.46666667,10.8401814 7.46666667,10.6934761 L7.46666667,0.533333333 L7.46666667,0.533333333 C7.46666667,0.238933333 7.7056,0 8,0 L17.6,0 C17.8944,0 18.1333333,0.238933333 18.1333333,0.533333333 L18.3641241,10.6881286 C18.3766728,11.2402707 17.9392459,11.6980431 17.3871037,11.7105918 C17.2393218,11.7139505 17.0926332,11.6845045 16.9575961,11.6243734 L13.0965333,9.90506667 L13.0965333,9.90506667 Z M12.8,8.74773333 C13.1093333,8.74773333 13.4176,8.83733333 13.6874667,9.01653333 L15.6436449,9.92977478 C16.1440809,10.1634032 16.7391578,9.94711298 16.9727862,9.44667698 C17.034621,9.31422592 17.0666667,9.16982919 17.0666667,9.02365525 L17.0666667,1.06666667 L17.0666667,1.06666667 L8.53333333,1.06666667 L8.53333333,9.0241044 C8.53333333,9.57638915 8.98104858,10.0241044 9.53333333,10.0241044 C9.67941983,10.0241044 9.82373234,9.992097 9.95612018,9.93033355 L11.9125333,9.0176 L11.9125333,9.0176 C12.1824,8.83733333 12.4906667,8.74773333 12.8,8.74773333 Z" id="Shape"></path>
                            <path d="M14.4,20.4 L14.4,19.4 C14.4,18.2954305 15.2954305,17.4 16.4,17.4 L20.4,17.4 C21.5045695,17.4 22.4,18.2954305 22.4,19.4 L22.4,20.4 C22.4,21.5045695 21.5045695,22.4 20.4,22.4 L16.4,22.4 C15.2954305,22.4 14.4,21.5045695 14.4,20.4 Z M16.723798,21.7142626 L20.1428687,21.7142626 C21.131715,21.7142626 21.9333333,20.9126443 21.9333333,19.923798 C21.9333333,18.9349517 21.131715,18.1333333 20.1428687,18.1333333 L16.723798,18.1333333 C15.7349517,18.1333333 14.9333333,18.9349517 14.9333333,19.923798 C14.9333333,20.9126443 15.7349517,21.7142626 16.723798,21.7142626 Z" id="Shape"></path>
                        </g>
                    </g>
                </g>
            </g>
        </g>
    </g>
</svg>